Nunito-Light.ufo
<glyph name="percent" format="1">
  <advance width="2056"/>
  <unicode hex="0025"/>
  <outline>
    <contour>
      <point x="1494" y="-31" type="curve" smooth="yes"/>
      <point x="1704" y="-31"/>
      <point x="1825" y="146"/>
      <point x="1825" y="349" type="curve" smooth="yes"/>
      <point x="1825" y="543"/>
      <point x="1714" y="726"/>
      <point x="1494" y="726" type="curve" smooth="yes"/>
      <point x="1286" y="726"/>
      <point x="1163" y="552"/>
      <point x="1163" y="349" type="curve" smooth="yes"/>
      <point x="1163" y="146"/>
      <point x="1283" y="-31"/>
    </contour>
    <contour>
      <point x="1494" y="67" type="curve" smooth="yes"/>
      <point x="1341" y="67"/>
      <point x="1290" y="216"/>
      <point x="1290" y="349" type="curve" smooth="yes"/>
      <point x="1290" y="481"/>
      <point x="1340" y="629"/>
      <point x="1494" y="629" type="curve" smooth="yes"/>
      <point x="1646" y="629"/>
      <point x="1698" y="482"/>
      <point x="1698" y="349" type="curve" smooth="yes"/>
      <point x="1698" y="217"/>
      <point x="1647" y="67"/>
    </contour>
    <contour>
      <point x="561" y="641" type="curve" smooth="yes"/>
      <point x="771" y="641"/>
      <point x="893" y="816"/>
      <point x="893" y="1020" type="curve" smooth="yes"/>
      <point x="893" y="1213"/>
      <point x="781" y="1398"/>
      <point x="561" y="1398" type="curve" smooth="yes"/>
      <point x="351" y="1398"/>
      <point x="230" y="1224"/>
      <point x="230" y="1020" type="curve" smooth="yes"/>
      <point x="230" y="814"/>
      <point x="351" y="641"/>
    </contour>
    <contour>
      <point x="561" y="738" type="curve" smooth="yes"/>
      <point x="410" y="738"/>
      <point x="356" y="886"/>
      <point x="356" y="1020" type="curve" smooth="yes"/>
      <point x="356" y="1152"/>
      <point x="409" y="1300"/>
      <point x="561" y="1300" type="curve" smooth="yes"/>
      <point x="713" y="1300"/>
      <point x="766" y="1152"/>
      <point x="766" y="1020" type="curve" smooth="yes"/>
      <point x="766" y="886"/>
      <point x="713" y="738"/>
    </contour>
    <contour>
      <point x="596" y="-72" type="curve" smooth="yes"/>
      <point x="613" y="-72"/>
      <point x="629" y="-68"/>
      <point x="640" y="-48" type="curve" smooth="yes"/>
      <point x="1439" y="1350" type="line" smooth="yes"/>
      <point x="1444" y="1359"/>
      <point x="1445" y="1368"/>
      <point x="1445" y="1377" type="curve" smooth="yes"/>
      <point x="1445" y="1409"/>
      <point x="1421" y="1433"/>
      <point x="1393" y="1433" type="curve" smooth="yes"/>
      <point x="1375" y="1433"/>
      <point x="1353" y="1422"/>
      <point x="1338" y="1396" type="curve" smooth="yes"/>
      <point x="543" y="1" type="line" smooth="yes"/>
      <point x="539" y="-7"/>
      <point x="537" y="-13"/>
      <point x="537" y="-20" type="curve" smooth="yes"/>
      <point x="537" y="-50"/>
      <point x="566" y="-72"/>
    </contour>
  </outline>
</glyph>
<glyph name="asterisk" format="1">
  <advance width="1105"/>
  <unicode hex="002A"/>
  <outline>
    <contour>
      <point x="378" y="737" type="curve" smooth="yes"/>
      <point x="401" y="737"/>
      <point x="423" y="749"/>
      <point x="434" y="768" type="curve" smooth="yes"/>
      <point x="551" y="979" type="line"/>
      <point x="669" y="768" type="line" smooth="yes"/>
      <point x="680" y="748"/>
      <point x="701" y="737"/>
      <point x="724" y="737" type="curve" smooth="yes"/>
      <point x="763" y="737"/>
      <point x="787" y="768"/>
      <point x="787" y="797" type="curve"/>
      <point x="786" y="808"/>
      <point x="784" y="819"/>
      <point x="778" y="830" type="curve" smooth="yes"/>
      <point x="652" y="1034" type="line"/>
      <point x="898" y="1025" type="line"/>
      <point x="934" y="1025"/>
      <point x="962" y="1053"/>
      <point x="962" y="1086" type="curve" smooth="yes"/>
      <point x="962" y="1122"/>
      <point x="934" y="1148"/>
      <point x="898" y="1148" type="curve"/>
      <point x="654" y="1139" type="line"/>
      <point x="781" y="1343" type="line" smooth="yes"/>
      <point x="786" y="1352"/>
      <point x="789" y="1362"/>
      <point x="789" y="1374" type="curve" smooth="yes"/>
      <point x="789" y="1406"/>
      <point x="763" y="1437"/>
      <point x="726" y="1437" type="curve" smooth="yes"/>
      <point x="703" y="1437"/>
      <point x="684" y="1426"/>
      <point x="670" y="1405" type="curve"/>
      <point x="551" y="1189" type="line"/>
      <point x="432" y="1405" type="line" smooth="yes"/>
      <point x="420" y="1426"/>
      <point x="399" y="1437"/>
      <point x="376" y="1437" type="curve" smooth="yes"/>
      <point x="339" y="1437"/>
      <point x="313" y="1406"/>
      <point x="313" y="1375" type="curve" smooth="yes"/>
      <point x="313" y="1364"/>
      <point x="316" y="1353"/>
      <point x="322" y="1343" type="curve" smooth="yes"/>
      <point x="448" y="1139" type="line"/>
      <point x="207" y="1148" type="line"/>
      <point x="171" y="1148"/>
      <point x="143" y="1122"/>
      <point x="143" y="1086" type="curve" smooth="yes"/>
      <point x="143" y="1053"/>
      <point x="172" y="1025"/>
      <point x="207" y="1025" type="curve"/>
      <point x="451" y="1034" type="line"/>
      <point x="324" y="830" type="line" smooth="yes"/>
      <point x="317" y="819"/>
      <point x="315" y="808"/>
      <point x="315" y="797" type="curve" smooth="yes"/>
      <point x="315" y="770"/>
      <point x="339" y="737"/>
    </contour>
  </outline>
</glyph>
<glyph name="comma" format="1">
  <advance width="578"/>
  <unicode hex="002C"/>
  <outline>
    <contour>
      <point x="159" y="-343" type="curve" smooth="yes"/>
      <point x="194" y="-343" type="line" smooth="yes"/>
      <point x="223" y="-344"/>
      <point x="239" y="-332"/>
      <point x="250" y="-300" type="curve" smooth="yes"/>
      <point x="409" y="167" type="line" smooth="yes"/>
      <point x="414" y="181"/>
      <point x="417" y="220"/>
      <point x="375" y="223" type="curve" smooth="yes"/>
      <point x="292" y="223" type="line" smooth="yes"/>
      <point x="260" y="222"/>
      <point x="227" y="214"/>
      <point x="219" y="167" type="curve" smooth="yes"/>
      <point x="135" y="-300" type="line" smooth="yes"/>
      <point x="133" y="-312"/>
      <point x="131" y="-342"/>
    </contour>
  </outline>
</glyph>
<glyph name="period" format="1">
  <advance width="578"/>
  <unicode hex="002E"/>
  <outline>
    <contour>
      <point x="289" y="-1" type="curve" smooth="yes"/>
      <point x="355" y="-1"/>
      <point x="391" y="45"/>
      <point x="391" y="92" type="curve" smooth="yes"/>
      <point x="391" y="135"/>
      <point x="355" y="182"/>
      <point x="289" y="182" type="curve" smooth="yes"/>
      <point x="223" y="182"/>
      <point x="187" y="136"/>
      <point x="187" y="92" type="curve" smooth="yes"/>
      <point x="187" y="45"/>
      <point x="222" y="-1"/>
    </contour>
  </outline>
</glyph>
<glyph name="two" format="1">
  <advance width="1169"/>
  <unicode hex="0032"/>
  <outline>
    <contour>
      <point x="263" y="0" type="curve" smooth="yes"/>
      <point x="975" y="0" type="line" smooth="yes"/>
      <point x="1026" y="0"/>
      <point x="1051" y="34"/>
      <point x="1051" y="68" type="curve" smooth="yes"/>
      <point x="1051" y="102"/>
      <point x="1025" y="137"/>
      <point x="975" y="137" type="curve" smooth="yes"/>
      <point x="312" y="137" type="line"/>
      <point x="793" y="576" type="line" smooth="yes"/>
      <point x="969" y="737"/>
      <point x="1049" y="893"/>
      <point x="1049" y="1046" type="curve" smooth="yes"/>
      <point x="1049" y="1265"/>
      <point x="900" y="1438"/>
      <point x="658" y="1438" type="curve" smooth="yes"/>
      <point x="484" y="1438"/>
      <point x="332" y="1408"/>
      <point x="204" y="1330" type="curve" smooth="yes"/>
      <point x="170" y="1309"/>
      <point x="156" y="1284"/>
      <point x="156" y="1262" type="curve" smooth="yes"/>
      <point x="156" y="1227"/>
      <point x="188" y="1198"/>
      <point x="224" y="1198" type="curve" smooth="yes"/>
      <point x="228" y="1198"/>
      <point x="231" y="1198"/>
      <point x="235" y="1199" type="curve" smooth="yes"/>
      <point x="243" y="1200"/>
      <point x="251" y="1203"/>
      <point x="258" y="1207" type="curve" smooth="yes"/>
      <point x="353" y="1259"/>
      <point x="475" y="1311"/>
      <point x="650" y="1308" type="curve" smooth="yes"/>
      <point x="794" y="1306"/>
      <point x="896" y="1196"/>
      <point x="896" y="1026" type="curve" smooth="yes"/>
      <point x="896" y="924"/>
      <point x="844" y="826"/>
      <point x="727" y="715" type="curve" smooth="yes"/>
      <point x="190" y="209" type="line" smooth="yes"/>
      <point x="154" y="175"/>
      <point x="137" y="137"/>
      <point x="137" y="103" type="curve" smooth="yes"/>
      <point x="137" y="46"/>
      <point x="183" y="0"/>
    </contour>
  </outline>
</glyph>
<glyph name="three" format="1">
  <advance width="1169"/>
  <unicode hex="0033"/>
  <outline>
    <contour>
      <point x="575" y="-22" type="curve" smooth="yes"/>
      <point x="819" y="-22"/>
      <point x="1050" y="92"/>
      <point x="1050" y="370" type="curve" smooth="yes"/>
      <point x="1050" y="559"/>
      <point x="936" y="688"/>
      <point x="772" y="734" type="curve"/>
      <point x="772" y="738" type="line"/>
      <point x="911" y="769"/>
      <point x="1026" y="881"/>
      <point x="1026" y="1049" type="curve" smooth="yes"/>
      <point x="1026" y="1315"/>
      <point x="817" y="1438"/>
      <point x="564" y="1438" type="curve" smooth="yes"/>
      <point x="436" y="1438"/>
      <point x="315" y="1407"/>
      <point x="219" y="1360" type="curve" smooth="yes"/>
      <point x="187" y="1344"/>
      <point x="172" y="1321"/>
      <point x="172" y="1294" type="curve" smooth="yes"/>
      <point x="172" y="1255"/>
      <point x="201" y="1218"/>
      <point x="245" y="1218" type="curve" smooth="yes"/>
      <point x="278" y="1218"/>
      <point x="401" y="1288"/>
      <point x="563" y="1288" type="curve" smooth="yes"/>
      <point x="712" y="1288"/>
      <point x="844" y="1203"/>
      <point x="844" y="1047" type="curve" smooth="yes"/>
      <point x="844" y="874"/>
      <point x="690" y="799"/>
      <point x="527" y="796" type="curve" smooth="yes"/>
      <point x="467" y="795" type="line" smooth="yes"/>
      <point x="423" y="794"/>
      <point x="400" y="760"/>
      <point x="400" y="725" type="curve" smooth="yes"/>
      <point x="400" y="690"/>
      <point x="423" y="657"/>
      <point x="467" y="657" type="curve" smooth="yes"/>
      <point x="542" y="657" type="line" smooth="yes"/>
      <point x="714" y="657"/>
      <point x="866" y="554"/>
      <point x="866" y="368" type="curve" smooth="yes"/>
      <point x="866" y="212"/>
      <point x="753" y="127"/>
      <point x="576" y="127" type="curve" smooth="yes"/>
      <point x="459" y="127"/>
      <point x="347" y="164"/>
      <point x="283" y="194" type="curve" smooth="yes"/>
      <point x="275" y="197"/>
      <point x="267" y="198"/>
      <point x="258" y="198" type="curve" smooth="yes"/>
      <point x="215" y="198"/>
      <point x="186" y="163"/>
      <point x="186" y="127" type="curve" smooth="yes"/>
      <point x="186" y="97"/>
      <point x="213" y="71"/>
      <point x="254" y="50" type="curve" smooth="yes"/>
      <point x="340" y="4"/>
      <point x="467" y="-22"/>
    </contour>
  </outline>
</glyph>
<glyph name="four" format="1">
  <advance width="1169"/>
  <unicode hex="0034"/>
  <outline>
    <contour>
      <point x="818" y="0" type="curve" smooth="yes"/>
      <point x="860" y="0"/>
      <point x="903" y="27"/>
      <point x="903" y="80" type="curve" smooth="yes"/>
      <point x="903" y="316" type="line"/>
      <point x="1058" y="316" type="line" smooth="yes"/>
      <point x="1102" y="316"/>
      <point x="1124" y="349"/>
      <point x="1124" y="382" type="curve" smooth="yes"/>
      <point x="1124" y="415"/>
      <point x="1102" y="448"/>
      <point x="1058" y="448" type="curve" smooth="yes"/>
      <point x="904" y="448" type="line"/>
      <point x="904" y="1303" type="line" smooth="yes"/>
      <point x="904" y="1389"/>
      <point x="845" y="1426"/>
      <point x="780" y="1426" type="curve" smooth="yes"/>
      <point x="724" y="1426"/>
      <point x="673" y="1402"/>
      <point x="638" y="1345" type="curve"/>
      <point x="77" y="474" type="line"/>
      <point x="62" y="454"/>
      <point x="58" y="431"/>
      <point x="58" y="411" type="curve" smooth="yes"/>
      <point x="58" y="360"/>
      <point x="95" y="316"/>
      <point x="154" y="316" type="curve" smooth="yes"/>
      <point x="731" y="316" type="line"/>
      <point x="731" y="80" type="line" smooth="yes"/>
      <point x="731" y="27"/>
      <point x="776" y="0"/>
    </contour>
    <contour>
      <point x="211" y="448" type="line"/>
      <point x="731" y="1263" type="line"/>
      <point x="731" y="448" type="line"/>
    </contour>
  </outline>
</glyph>
<glyph name="five" format="1">
  <advance width="1169"/>
  <unicode hex="0035"/>
  <outline>
    <contour>
      <point x="595" y="-22" type="curve" smooth="yes"/>
      <point x="880" y="-22"/>
      <point x="1072" y="159"/>
      <point x="1072" y="438" type="curve" smooth="yes"/>
      <point x="1072" y="701"/>
      <point x="905" y="894"/>
      <point x="641" y="894" type="curve" smooth="yes"/>
      <point x="443" y="894"/>
      <point x="322" y="766"/>
      <point x="322" y="766" type="curve"/>
      <point x="324" y="1285" type="line"/>
      <point x="934" y="1285" type="line" smooth="yes"/>
      <point x="981" y="1285"/>
      <point x="1003" y="1320"/>
      <point x="1003" y="1356" type="curve" smooth="yes"/>
      <point x="1003" y="1391"/>
      <point x="981" y="1426"/>
      <point x="934" y="1426" type="curve" smooth="yes"/>
      <point x="266" y="1426" type="line" smooth="yes"/>
      <point x="210" y="1426"/>
      <point x="183" y="1395"/>
      <point x="183" y="1348" type="curve" smooth="yes"/>
      <point x="183" y="665" type="line" smooth="yes"/>
      <point x="183" y="614"/>
      <point x="216" y="588"/>
      <point x="253" y="588" type="curve" smooth="yes"/>
      <point x="349" y="588"/>
      <point x="411" y="757"/>
      <point x="611" y="757" type="curve" smooth="yes"/>
      <point x="788" y="757"/>
      <point x="889" y="630"/>
      <point x="889" y="445" type="curve" smooth="yes"/>
      <point x="889" y="248"/>
      <point x="800" y="118"/>
      <point x="589" y="118" type="curve" smooth="yes"/>
      <point x="449" y="118"/>
      <point x="344" y="177"/>
      <point x="275" y="251" type="curve" smooth="yes"/>
      <point x="257" y="270"/>
      <point x="238" y="278"/>
      <point x="219" y="278" type="curve" smooth="yes"/>
      <point x="183" y="278"/>
      <point x="151" y="247"/>
      <point x="151" y="208" type="curve" smooth="yes"/>
      <point x="151" y="203"/>
      <point x="152" y="197"/>
      <point x="153" y="192" type="curve" smooth="yes"/>
      <point x="156" y="176"/>
      <point x="165" y="158"/>
      <point x="182" y="141" type="curve" smooth="yes"/>
      <point x="298" y="24"/>
      <point x="423" y="-22"/>
    </contour>
  </outline>
</glyph>
<glyph name="six" format="1">
  <advance width="1169"/>
  <unicode hex="0036"/>
  <outline>
    <contour>
      <point x="613" y="-22" type="curve" smooth="yes"/>
      <point x="897" y="-22"/>
      <point x="1083" y="167"/>
      <point x="1083" y="467" type="curve" smooth="yes"/>
      <point x="1083" y="751"/>
      <point x="918" y="922"/>
      <point x="640" y="926" type="curve"/>
      <point x="476" y="926"/>
      <point x="342" y="857"/>
      <point x="271" y="714" type="curve"/>
      <point x="271" y="969"/>
      <point x="320" y="1294"/>
      <point x="674" y="1294" type="curve" smooth="yes"/>
      <point x="745" y="1294"/>
      <point x="831" y="1273"/>
      <point x="920" y="1238" type="curve" smooth="yes"/>
      <point x="991" y="1215"/>
      <point x="1036" y="1335"/>
      <point x="971" y="1366" type="curve"/>
      <point x="882" y="1413"/>
      <point x="777" y="1438"/>
      <point x="666" y="1438" type="curve" smooth="yes"/>
      <point x="171" y="1438"/>
      <point x="89" y="1023"/>
      <point x="89" y="655" type="curve" smooth="yes"/>
      <point x="89" y="296"/>
      <point x="203" y="-22"/>
    </contour>
    <contour>
      <point x="597" y="118" type="curve" smooth="yes"/>
      <point x="429" y="118"/>
      <point x="295" y="244"/>
      <point x="295" y="447" type="curve" smooth="yes"/>
      <point x="295" y="662"/>
      <point x="409" y="795"/>
      <point x="620" y="799" type="curve"/>
      <point x="819" y="794"/>
      <point x="904" y="654"/>
      <point x="904" y="458" type="curve" smooth="yes"/>
      <point x="904" y="236"/>
      <point x="785" y="118"/>
    </contour>
  </outline>
</glyph>
<glyph name="eight" format="1">
  <advance width="1169"/>
  <unicode hex="0038"/>
  <outline>
    <contour>
      <point x="584" y="-22" type="curve" smooth="yes"/>
      <point x="848" y="-22"/>
      <point x="1064" y="113"/>
      <point x="1064" y="377" type="curve" smooth="yes"/>
      <point x="1064" y="557"/>
      <point x="950" y="682"/>
      <point x="779" y="735" type="curve"/>
      <point x="779" y="737" type="line"/>
      <point x="923" y="769"/>
      <point x="1042" y="896"/>
      <point x="1042" y="1064" type="curve" smooth="yes"/>
      <point x="1042" y="1316"/>
      <point x="832" y="1438"/>
      <point x="584" y="1438" type="curve" smooth="yes"/>
      <point x="339" y="1438"/>
      <point x="127" y="1316"/>
      <point x="127" y="1064" type="curve" smooth="yes"/>
      <point x="127" y="907"/>
      <point x="252" y="754"/>
      <point x="392" y="737" type="curve"/>
      <point x="392" y="733" type="line"/>
      <point x="224" y="695"/>
      <point x="105" y="551"/>
      <point x="105" y="377" type="curve" smooth="yes"/>
      <point x="105" y="113"/>
      <point x="320" y="-22"/>
    </contour>
    <contour>
      <point x="584" y="118" type="curve" smooth="yes"/>
      <point x="420" y="118"/>
      <point x="287" y="202"/>
      <point x="287" y="383" type="curve" smooth="yes"/>
      <point x="287" y="569"/>
      <point x="418" y="664"/>
      <point x="584" y="664" type="curve" smooth="yes"/>
      <point x="750" y="664"/>
      <point x="881" y="569"/>
      <point x="881" y="383" type="curve" smooth="yes"/>
      <point x="881" y="202"/>
      <point x="750" y="118"/>
    </contour>
    <contour>
      <point x="584" y="818" type="curve" smooth="yes"/>
      <point x="408" y="818"/>
      <point x="299" y="898"/>
      <point x="299" y="1061" type="curve" smooth="yes"/>
      <point x="299" y="1236"/>
      <point x="436" y="1307"/>
      <point x="584" y="1307" type="curve" smooth="yes"/>
      <point x="734" y="1307"/>
      <point x="870" y="1236"/>
      <point x="870" y="1061" type="curve" smooth="yes"/>
      <point x="870" y="898"/>
      <point x="762" y="818"/>
    </contour>
  </outline>
</glyph>
<glyph name="nine" format="1">
  <advance width="1169"/>
  <unicode hex="0039"/>
  <outline>
    <contour>
      <point x="504" y="-22" type="curve" smooth="yes"/>
      <point x="1011" y="-22"/>
      <point x="1076" y="455"/>
      <point x="1076" y="786" type="curve" smooth="yes"/>
      <point x="1076" y="1126"/>
      <point x="957" y="1438"/>
      <point x="556" y="1438" type="curve" smooth="yes"/>
      <point x="265" y="1438"/>
      <point x="89" y="1235"/>
      <point x="89" y="968" type="curve" smooth="yes"/>
      <point x="89" y="703"/>
      <point x="255" y="516"/>
      <point x="533" y="516" type="curve" smooth="yes"/>
      <point x="694" y="516"/>
      <point x="825" y="583"/>
      <point x="890" y="702" type="curve"/>
      <point x="890" y="702"/>
      <point x="889" y="703"/>
      <point x="892" y="703" type="curve"/>
      <point x="892" y="423"/>
      <point x="835" y="121"/>
      <point x="507" y="121" type="curve" smooth="yes"/>
      <point x="434" y="121"/>
      <point x="346" y="138"/>
      <point x="256" y="181" type="curve" smooth="yes"/>
      <point x="181" y="217"/>
      <point x="127" y="89"/>
      <point x="198" y="53" type="curve" smooth="yes"/>
      <point x="286" y="9"/>
      <point x="393" y="-22"/>
    </contour>
    <contour>
      <point x="549" y="643" type="curve" smooth="yes"/>
      <point x="350" y="643"/>
      <point x="268" y="801"/>
      <point x="268" y="977" type="curve" smooth="yes"/>
      <point x="268" y="1164"/>
      <point x="376" y="1298"/>
      <point x="572" y="1298" type="curve" smooth="yes"/>
      <point x="748" y="1298"/>
      <point x="869" y="1152"/>
      <point x="869" y="984" type="curve" smooth="yes"/>
      <point x="869" y="789"/>
      <point x="760" y="643"/>
    </contour>
  </outline>
</glyph>
<glyph name="colon" format="1">
  <advance width="584"/>
  <unicode hex="003A"/>
  <outline>
    <contour>
      <point x="292" y="-1" type="curve" smooth="yes"/>
      <point x="360" y="-1"/>
      <point x="399" y="47"/>
      <point x="399" y="97" type="curve" smooth="yes"/>
      <point x="399" y="145"/>
      <point x="360" y="194"/>
      <point x="292" y="194" type="curve" smooth="yes"/>
      <point x="223" y="194"/>
      <point x="184" y="145"/>
      <point x="184" y="97" type="curve" smooth="yes"/>
      <point x="184" y="47"/>
      <point x="223" y="-1"/>
    </contour>
    <contour>
      <point x="292" y="805" type="curve" smooth="yes"/>
      <point x="360" y="805"/>
      <point x="399" y="851"/>
      <point x="399" y="902" type="curve" smooth="yes"/>
      <point x="399" y="952"/>
      <point x="360" y="1000"/>
      <point x="292" y="1000" type="curve" smooth="yes"/>
      <point x="223" y="1000"/>
      <point x="184" y="952"/>
      <point x="184" y="902" type="curve" smooth="yes"/>
      <point x="184" y="851"/>
      <point x="223" y="805"/>
    </contour>
  </outline>
</glyph>
<glyph name="greater" format="1">
  <advance width="1340"/>
  <unicode hex="003E"/>
  <outline>
    <contour>
      <point x="186" y="138" type="line" smooth="yes"/>
      <point x="134" y="115"/>
      <point x="174" y="6"/>
      <point x="233" y="32" type="curve" smooth="yes"/>
      <point x="1125" y="429" type="line" smooth="yes"/>
      <point x="1183" y="455"/>
      <point x="1191" y="531"/>
      <point x="1124" y="560" type="curve" smooth="yes"/>
      <point x="237" y="938" type="line" smooth="yes"/>
      <point x="179" y="963"/>
      <point x="118" y="863"/>
      <point x="189" y="833" type="curve" smooth="yes"/>
      <point x="990" y="495" type="line"/>
    </contour>
  </outline>
</glyph>
<glyph name="A" format="1">
  <advance width="1414"/>
  <unicode hex="0041"/>
  <outline>
    <contour>
      <point x="150" y="0" type="curve" smooth="yes"/>
      <point x="181" y="0"/>
      <point x="214" y="15"/>
      <point x="229" y="53" type="curve" smooth="yes"/>
      <point x="356" y="373" type="line"/>
      <point x="1051" y="373" type="line"/>
      <point x="1179" y="53" type="line" smooth="yes"/>
      <point x="1193" y="17"/>
      <point x="1228" y="0"/>
      <point x="1260" y="0" type="curve" smooth="yes"/>
      <point x="1306" y="0"/>
      <point x="1354" y="31"/>
      <point x="1354" y="80" type="curve" smooth="yes"/>
      <point x="1354" y="87"/>
      <point x="1352" y="97"/>
      <point x="1349" y="108" type="curve"/>
      <point x="871" y="1288" type="line" smooth="yes"/>
      <point x="817" y="1420"/>
      <point x="777" y="1430"/>
      <point x="710" y="1430" type="curve" smooth="yes"/>
      <point x="644" y="1430"/>
      <point x="596" y="1413"/>
      <point x="542" y="1280" type="curve" smooth="yes"/>
      <point x="66" y="108" type="line" smooth="yes"/>
      <point x="62" y="97"/>
      <point x="60" y="87"/>
      <point x="60" y="78" type="curve" smooth="yes"/>
      <point x="60" y="32"/>
      <point x="106" y="0"/>
    </contour>
    <contour>
      <point x="403" y="502" type="line"/>
      <point x="703" y="1275" type="line"/>
      <point x="705" y="1275" type="line"/>
      <point x="1004" y="502" type="line"/>
    </contour>
    <contour>
      <point x="1266.0" y="19.0" type="move" name="ogonek"/>
    </contour>
    <contour>
      <point x="706.0" y="1438.0" type="move" name="top"/>
    </contour>
  </outline>
</glyph>
<glyph name="B" format="1">
  <advance width="1292"/>
  <unicode hex="0042"/>
  <outline>
    <contour>
      <point x="266" y="0" type="curve" smooth="yes"/>
      <point x="732" y="0" type="line" smooth="yes"/>
      <point x="1066" y="0"/>
      <point x="1208" y="187"/>
      <point x="1208" y="383" type="curve" smooth="yes"/>
      <point x="1208" y="583"/>
      <point x="1075" y="710"/>
      <point x="874" y="742" type="curve"/>
      <point x="874" y="746" type="line"/>
      <point x="1031" y="781"/>
      <point x="1149" y="912"/>
      <point x="1149" y="1068" type="curve" smooth="yes"/>
      <point x="1149" y="1286"/>
      <point x="967" y="1426"/>
      <point x="713" y="1426" type="curve" smooth="yes"/>
      <point x="266" y="1426" type="line" smooth="yes"/>
      <point x="218" y="1426"/>
      <point x="178" y="1389"/>
      <point x="178" y="1341" type="curve" smooth="yes"/>
      <point x="178" y="85" type="line" smooth="yes"/>
      <point x="178" y="37"/>
      <point x="218" y="0"/>
    </contour>
    <contour>
      <point x="353" y="138" type="line"/>
      <point x="353" y="672" type="line"/>
      <point x="570" y="672" type="line" smooth="yes"/>
      <point x="833" y="672"/>
      <point x="1023" y="633"/>
      <point x="1023" y="405" type="curve" smooth="yes"/>
      <point x="1023" y="194"/>
      <point x="885" y="138"/>
      <point x="642" y="138" type="curve" smooth="yes"/>
    </contour>
    <contour>
      <point x="353" y="801" type="line"/>
      <point x="353" y="1288" type="line"/>
      <point x="632" y="1288" type="line" smooth="yes"/>
      <point x="800" y="1288"/>
      <point x="966" y="1244"/>
      <point x="966" y="1049" type="curve" smooth="yes"/>
      <point x="966" y="866"/>
      <point x="806" y="801"/>
      <point x="637" y="801" type="curve" smooth="yes"/>
    </contour>
    <contour>
      <point x="649" y="1438" type="move" name="top"/>
    </contour>
  </outline>
</glyph>
<glyph name="C" format="1">
  <advance width="1353.89159487"/>
  <unicode hex="0043"/>
  <outline>
    <contour>
      <point x="783" y="-22" type="curve" smooth="yes"/>
      <point x="965" y="-22"/>
      <point x="1086" y="34"/>
      <point x="1166" y="86" type="curve" smooth="yes"/>
      <point x="1270" y="154"/>
      <point x="1186" y="258"/>
      <point x="1112" y="214" type="curve" smooth="yes"/>
      <point x="1024" y="162"/>
      <point x="939" y="120"/>
      <point x="806" y="120" type="curve" smooth="yes"/>
      <point x="446" y="120"/>
      <point x="316" y="406"/>
      <point x="316" y="706" type="curve" smooth="yes"/>
      <point x="316" y="1005"/>
      <point x="450" y="1296"/>
      <point x="801" y="1296" type="curve" smooth="yes"/>
      <point x="980" y="1296"/>
      <point x="1053" y="1246"/>
      <point x="1094" y="1225" type="curve" smooth="yes"/>
      <point x="1174" y="1184"/>
      <point x="1231" y="1300"/>
      <point x="1156" y="1343" type="curve" smooth="yes"/>
      <point x="1106" y="1372"/>
      <point x="995" y="1438"/>
      <point x="797" y="1438" type="curve" smooth="yes"/>
      <point x="359" y="1438"/>
      <point x="128" y="1093"/>
      <point x="128" y="704" type="curve" smooth="yes"/>
      <point x="128" y="307"/>
      <point x="350" y="-22"/>
    </contour>
    <contour>
      <point x="767" y="9" type="move" name="bot"/>
    </contour>
    <contour>
      <point x="786" y="1438" type="move" name="top"/>
    </contour>
  </outline>
</glyph>
<glyph name="D" format="1">
  <advance width="1499"/>
  <unicode hex="0044"/>
  <outline>
    <contour>
      <point x="267" y="0" type="curve" smooth="yes"/>
      <point x="611" y="0" type="line" smooth="yes"/>
      <point x="1093" y="0"/>
      <point x="1371" y="244"/>
      <point x="1371" y="710" type="curve" smooth="yes"/>
      <point x="1371" y="1178"/>
      <point x="1103" y="1426"/>
      <point x="607" y="1426" type="curve" smooth="yes"/>
      <point x="267" y="1426" type="line" smooth="yes"/>
      <point x="218" y="1426"/>
      <point x="178" y="1387"/>
      <point x="178" y="1340" type="curve" smooth="yes"/>
      <point x="178" y="86" type="line" smooth="yes"/>
      <point x="178" y="39"/>
      <point x="218" y="0"/>
    </contour>
    <contour>
      <point x="355" y="140" type="line"/>
      <point x="355" y="1286" type="line"/>
      <point x="582" y="1286" type="line" smooth="yes"/>
      <point x="959" y="1286"/>
      <point x="1181" y="1108"/>
      <point x="1181" y="712" type="curve" smooth="yes"/>
      <point x="1181" y="362"/>
      <point x="1022" y="140"/>
      <point x="630" y="140" type="curve" smooth="yes"/>
    </contour>
    <contour>
      <point x="776" y="1438" type="move" name="top"/>
    </contour>
  </outline>
</glyph>
<glyph name="E" format="1">
  <advance width="1234"/>
  <unicode hex="0045"/>
  <outline>
    <contour>
      <point x="266" y="0" type="curve" smooth="yes"/>
      <point x="1035" y="0" type="line" smooth="yes"/>
      <point x="1084" y="0"/>
      <point x="1108" y="36"/>
      <point x="1108" y="73" type="curve" smooth="yes"/>
      <point x="1108" y="109"/>
      <point x="1084" y="145"/>
      <point x="1035" y="145" type="curve" smooth="yes"/>
      <point x="353" y="145" type="line"/>
      <point x="353" y="662" type="line"/>
      <point x="975" y="662" type="line" smooth="yes"/>
      <point x="1024" y="662"/>
      <point x="1049" y="698"/>
      <point x="1049" y="734" type="curve" smooth="yes"/>
      <point x="1049" y="770"/>
      <point x="1026" y="806"/>
      <point x="975" y="806" type="curve" smooth="yes"/>
      <point x="353" y="806" type="line"/>
      <point x="353" y="1281" type="line"/>
      <point x="1007" y="1281" type="line" smooth="yes"/>
      <point x="1056" y="1281"/>
      <point x="1080" y="1317"/>
      <point x="1080" y="1354" type="curve" smooth="yes"/>
      <point x="1080" y="1390"/>
      <point x="1056" y="1426"/>
      <point x="1007" y="1426" type="curve" smooth="yes"/>
      <point x="261" y="1426" type="line" smooth="yes"/>
      <point x="213" y="1426"/>
      <point x="178" y="1383"/>
      <point x="178" y="1340" type="curve" smooth="yes"/>
      <point x="178" y="86" type="line" smooth="yes"/>
      <point x="178" y="41"/>
      <point x="222" y="0"/>
    </contour>
    <contour>
      <point x="814" y="9" type="move" name="ogonek"/>
    </contour>
    <contour>
      <point x="645" y="1438" type="move" name="top"/>
    </contour>
  </outline>
</glyph>
<glyph name="F" format="1">
  <advance width="1136"/>
  <unicode hex="0046"/>
  <outline>
    <contour>
      <point x="261" y="0" type="curve" smooth="yes"/>
      <point x="300" y="0"/>
      <point x="341" y="24"/>
      <point x="341" y="76" type="curve" smooth="yes"/>
      <point x="341" y="676" type="line"/>
      <point x="937" y="676" type="line" smooth="yes"/>
      <point x="983" y="676"/>
      <point x="1007" y="707"/>
      <point x="1007" y="741" type="curve" smooth="yes"/>
      <point x="1007" y="775"/>
      <point x="983" y="803"/>
      <point x="937" y="803" type="curve" smooth="yes"/>
      <point x="341" y="803" type="line"/>
      <point x="341" y="1296" type="line"/>
      <point x="963" y="1296" type="line" smooth="yes"/>
      <point x="1008" y="1296"/>
      <point x="1031" y="1325"/>
      <point x="1031" y="1360" type="curve" smooth="yes"/>
      <point x="1031" y="1394"/>
      <point x="1008" y="1424"/>
      <point x="963" y="1424" type="curve" smooth="yes"/>
      <point x="255" y="1424" type="line" smooth="yes"/>
      <point x="214" y="1424"/>
      <point x="179" y="1394"/>
      <point x="179" y="1347" type="curve" smooth="yes"/>
      <point x="179" y="76" type="line" smooth="yes"/>
      <point x="179" y="25"/>
      <point x="220" y="0"/>
    </contour>
  </outline>
</glyph>
<glyph name="G" format="1">
  <advance width="1448"/>
  <unicode hex="0047"/>
  <outline>
    <contour>
      <point x="807" y="-22" type="curve" smooth="yes"/>
      <point x="976" y="-22"/>
      <point x="1141" y="8"/>
      <point x="1260" y="56" type="curve"/>
      <point x="1297" y="65"/>
      <point x="1326" y="95"/>
      <point x="1326" y="144" type="curve" smooth="yes"/>
      <point x="1326" y="660" type="line" smooth="yes"/>
      <point x="1326" y="707"/>
      <point x="1299" y="735"/>
      <point x="1252" y="735" type="curve" smooth="yes"/>
      <point x="867" y="735" type="line" smooth="yes"/>
      <point x="822" y="735"/>
      <point x="800" y="703"/>
      <point x="800" y="668" type="curve" smooth="yes"/>
      <point x="800" y="633"/>
      <point x="823" y="601"/>
      <point x="867" y="601" type="curve" smooth="yes"/>
      <point x="1150" y="601" type="line"/>
      <point x="1150" y="167" type="line"/>
      <point x="1053" y="140"/>
      <point x="944" y="123"/>
      <point x="839" y="123" type="curve" smooth="yes"/>
      <point x="449" y="123"/>
      <point x="317" y="359"/>
      <point x="317" y="709" type="curve" smooth="yes"/>
      <point x="317" y="1018"/>
      <point x="470" y="1287"/>
      <point x="840" y="1287" type="curve" smooth="yes"/>
      <point x="938" y="1287"/>
      <point x="1075" y="1266"/>
      <point x="1191" y="1234" type="curve" smooth="yes"/>
      <point x="1194" y="1233"/>
      <point x="1207" y="1232"/>
      <point x="1207" y="1232" type="curve" smooth="yes"/>
      <point x="1246" y="1232"/>
      <point x="1271" y="1269"/>
      <point x="1271" y="1305" type="curve" smooth="yes"/>
      <point x="1271" y="1329"/>
      <point x="1260" y="1353"/>
      <point x="1232" y="1365" type="curve" smooth="yes"/>
      <point x="1117" y="1413"/>
      <point x="978" y="1438"/>
      <point x="833" y="1438" type="curve" smooth="yes"/>
      <point x="358" y="1438"/>
      <point x="128" y="1093"/>
      <point x="128" y="712" type="curve" smooth="yes"/>
      <point x="128" y="221"/>
      <point x="403" y="-22"/>
    </contour>
    <contour>
      <point x="833" y="0" type="move" name="bot"/>
    </contour>
    <contour>
      <point x="862" y="1426" type="move" name="top"/>
    </contour>
  </outline>
</glyph>
<glyph name="I" format="1">
  <advance width="592"/>
  <unicode hex="0049"/>
  <outline>
    <contour>
      <point x="296" y="0" type="curve" smooth="yes"/>
      <point x="341" y="0"/>
      <point x="386" y="27"/>
      <point x="386" y="84" type="curve" smooth="yes"/>
      <point x="386" y="1341" type="line" smooth="yes"/>
      <point x="386" y="1398"/>
      <point x="342" y="1426"/>
      <point x="298" y="1426" type="curve" smooth="yes"/>
      <point x="253" y="1426"/>
      <point x="208" y="1397"/>
      <point x="208" y="1341" type="curve" smooth="yes"/>
      <point x="208" y="84" type="line" smooth="yes"/>
      <point x="208" y="28"/>
      <point x="252" y="0"/>
    </contour>
    <contour>
      <point x="304" y="1438" type="move" name="top"/>
    </contour>
  </outline>
</glyph>
<glyph name="J" format="1">
  <advance width="1003"/>
  <unicode hex="004A"/>
  <outline>
    <contour>
      <point x="420" y="-22" type="curve" smooth="yes"/>
      <point x="644" y="-22"/>
      <point x="861" y="103"/>
      <point x="861" y="441" type="curve" smooth="yes"/>
      <point x="861" y="1343" type="line" smooth="yes"/>
      <point x="861" y="1399"/>
      <point x="817" y="1426"/>
      <point x="772" y="1426" type="curve" smooth="yes"/>
      <point x="727" y="1426"/>
      <point x="682" y="1399"/>
      <point x="682" y="1343" type="curve" smooth="yes"/>
      <point x="682" y="456" type="line" smooth="yes"/>
      <point x="682" y="223"/>
      <point x="590" y="126"/>
      <point x="423" y="126" type="curve" smooth="yes"/>
      <point x="327" y="126"/>
      <point x="254" y="166"/>
      <point x="212" y="199" type="curve" smooth="yes"/>
      <point x="186" y="219"/>
      <point x="164" y="227"/>
      <point x="145" y="227" type="curve" smooth="yes"/>
      <point x="103" y="227"/>
      <point x="79" y="188"/>
      <point x="79" y="149" type="curve" smooth="yes"/>
      <point x="79" y="144"/>
      <point x="79" y="139"/>
      <point x="80" y="135" type="curve" smooth="yes"/>
      <point x="83" y="119"/>
      <point x="89" y="105"/>
      <point x="100" y="94" type="curve" smooth="yes"/>
      <point x="145" y="50"/>
      <point x="257" y="-22"/>
    </contour>
    <contour>
      <point x="771" y="1438" type="move" name="top"/>
    </contour>
  </outline>
</glyph>
<glyph name="K" format="1">
  <advance width="1210"/>
  <unicode hex="004B"/>
  <outline>
    <contour>
      <point x="264" y="0" type="curve" smooth="yes"/>
      <point x="308" y="0"/>
      <point x="353" y="27"/>
      <point x="353" y="83" type="curve" smooth="yes"/>
      <point x="353" y="711" type="line"/>
      <point x="1018" y="35" type="line"/>
      <point x="1038" y="11"/>
      <point x="1063" y="0"/>
      <point x="1087" y="0" type="curve" smooth="yes"/>
      <point x="1134" y="0"/>
      <point x="1178" y="38"/>
      <point x="1178" y="84" type="curve" smooth="yes"/>
      <point x="1178" y="102"/>
      <point x="1171" y="120"/>
      <point x="1156" y="139" type="curve"/>
      <point x="544" y="736" type="line"/>
      <point x="1100" y="1302" type="line"/>
      <point x="1113" y="1319"/>
      <point x="1120" y="1336"/>
      <point x="1120" y="1353" type="curve" smooth="yes"/>
      <point x="1120" y="1394"/>
      <point x="1083" y="1426"/>
      <point x="1040" y="1426" type="curve" smooth="yes"/>
      <point x="1017" y="1426"/>
      <point x="994" y="1418"/>
      <point x="975" y="1395" type="curve"/>
      <point x="353" y="755" type="line"/>
      <point x="353" y="1342" type="line" smooth="yes"/>
      <point x="353" y="1397"/>
      <point x="309" y="1426"/>
      <point x="266" y="1426" type="curve" smooth="yes"/>
      <point x="222" y="1426"/>
      <point x="178" y="1398"/>
      <point x="178" y="1342" type="curve" smooth="yes"/>
      <point x="178" y="83" type="line" smooth="yes"/>
      <point x="178" y="27"/>
      <point x="221" y="0"/>
    </contour>
    <contour>
      <point x="646" y="0" type="move" name="bot"/>
    </contour>
    <contour>
      <point x="638" y="1438" type="move" name="top"/>
    </contour>
  </outline>
</glyph>
<glyph name="L" format="1">
  <advance width="1095"/>
  <unicode hex="004C"/>
  <outline>
    <contour>
      <point x="268" y="0" type="curve" smooth="yes"/>
      <point x="1003" y="0" type="line" smooth="yes"/>
      <point x="1052" y="0"/>
      <point x="1077" y="37"/>
      <point x="1077" y="73" type="curve" smooth="yes"/>
      <point x="1077" y="110"/>
      <point x="1054" y="146"/>
      <point x="1003" y="146" type="curve" smooth="yes"/>
      <point x="356" y="146" type="line"/>
      <point x="356" y="1342" type="line" smooth="yes"/>
      <point x="356" y="1398"/>
      <point x="312" y="1426"/>
      <point x="268" y="1426" type="curve" smooth="yes"/>
      <point x="223" y="1426"/>
      <point x="178" y="1397"/>
      <point x="178" y="1342" type="curve" smooth="yes"/>
      <point x="178" y="87" type="line" smooth="yes"/>
      <point x="178" y="38"/>
      <point x="220" y="0"/>
    </contour>
    <contour>
      <point x="657" y="0" type="move" name="bot"/>
    </contour>
    <contour>
      <point x="559" y="1438" type="move" name="top"/>
    </contour>
  </outline>
</glyph>
<glyph name="N" format="1">
  <advance width="1499"/>
  <unicode hex="004E"/>
  <outline>
    <contour>
      <point x="261" y="0" type="curve" smooth="yes"/>
      <point x="303" y="0"/>
      <point x="346" y="27"/>
      <point x="346" y="79" type="curve" smooth="yes"/>
      <point x="346" y="1183" type="line"/>
      <point x="1091" y="58" type="line"/>
      <point x="1120" y="18"/>
      <point x="1161" y="0"/>
      <point x="1200" y="0" type="curve" smooth="yes"/>
      <point x="1263" y="0"/>
      <point x="1321" y="43"/>
      <point x="1321" y="118" type="curve" smooth="yes"/>
      <point x="1321" y="1346" type="line" smooth="yes"/>
      <point x="1321" y="1399"/>
      <point x="1279" y="1426"/>
      <point x="1238" y="1426" type="curve" smooth="yes"/>
      <point x="1195" y="1426"/>
      <point x="1154" y="1399"/>
      <point x="1154" y="1346" type="curve" smooth="yes"/>
      <point x="1154" y="227" type="line"/>
      <point x="397" y="1368" type="line"/>
      <point x="368" y="1408"/>
      <point x="330" y="1426"/>
      <point x="291" y="1426" type="curve" smooth="yes"/>
      <point x="232" y="1426"/>
      <point x="178" y="1383"/>
      <point x="178" y="1308" type="curve" smooth="yes"/>
      <point x="178" y="79" type="line" smooth="yes"/>
      <point x="178" y="26"/>
      <point x="218" y="0"/>
    </contour>
    <contour>
      <point x="772" y="0" type="move" name="bot"/>
    </contour>
    <contour>
      <point x="794" y="1438" type="move" name="top"/>
    </contour>
  </outline>
</glyph>
<glyph name="O" format="1">
  <advance width="1597"/>
  <unicode hex="004F"/>
  <outline>
    <contour>
      <point x="799" y="120" type="curve" smooth="yes"/>
      <point x="500" y="120"/>
      <point x="318" y="342"/>
      <point x="318" y="708" type="curve" smooth="yes"/>
      <point x="318" y="1074"/>
      <point x="500" y="1296"/>
      <point x="799" y="1296" type="curve" smooth="yes"/>
      <point x="1098" y="1296"/>
      <point x="1279" y="1074"/>
      <point x="1279" y="708" type="curve" smooth="yes"/>
      <point x="1279" y="342"/>
      <point x="1098" y="120"/>
    </contour>
    <contour>
      <point x="799" y="-22" type="curve" smooth="yes"/>
      <point x="1210" y="-22"/>
      <point x="1467" y="260"/>
      <point x="1467" y="708" type="curve" smooth="yes"/>
      <point x="1467" y="1156"/>
      <point x="1210" y="1438"/>
      <point x="799" y="1438" type="curve" smooth="yes"/>
      <point x="387" y="1438"/>
      <point x="130" y="1156"/>
      <point x="130" y="708" type="curve" smooth="yes"/>
      <point x="130" y="260"/>
      <point x="387" y="-22"/>
    </contour>
    <contour>
      <point x="817.0" y="9.0" type="move" name="ogonek"/>
    </contour>
    <contour>
      <point x="799.0" y="1438.0" type="move" name="top"/>
    </contour>
  </outline>
</glyph>
<glyph name="P" format="1">
  <advance width="1201"/>
  <unicode hex="0050"/>
  <outline>
    <contour>
      <point x="267" y="0" type="curve" smooth="yes"/>
      <point x="311" y="0"/>
      <point x="356" y="27"/>
      <point x="356" y="84" type="curve" smooth="yes"/>
      <point x="356" y="624" type="line"/>
      <point x="668" y="624" type="line" smooth="yes"/>
      <point x="961" y="624"/>
      <point x="1182" y="722"/>
      <point x="1182" y="1026" type="curve" smooth="yes"/>
      <point x="1182" y="1324"/>
      <point x="966" y="1426"/>
      <point x="676" y="1426" type="curve" smooth="yes"/>
      <point x="268" y="1426" type="line" smooth="yes"/>
      <point x="217" y="1426"/>
      <point x="178" y="1387"/>
      <point x="178" y="1339" type="curve" smooth="yes"/>
      <point x="178" y="84" type="line" smooth="yes"/>
      <point x="178" y="28"/>
      <point x="222" y="0"/>
    </contour>
    <contour>
      <point x="356" y="764" type="curve"/>
      <point x="356" y="1286" type="line"/>
      <point x="356" y="1286"/>
      <point x="715" y="1286"/>
      <point x="721" y="1286" type="curve" smooth="yes"/>
      <point x="904" y="1286"/>
      <point x="996" y="1210"/>
      <point x="996" y="1026" type="curve" smooth="yes"/>
      <point x="996" y="838"/>
      <point x="901" y="764"/>
      <point x="715" y="764" type="curve" smooth="yes"/>
      <point x="710" y="764"/>
      <point x="356" y="764"/>
    </contour>
    <contour>
      <point x="641" y="1438" type="move" name="top"/>
    </contour>
  </outline>
</glyph>
<glyph name="R" format="1">
  <advance width="1363"/>
  <unicode hex="0052"/>
  <outline>
    <contour>
      <point x="266" y="0" type="curve" smooth="yes"/>
      <point x="310" y="0"/>
      <point x="355" y="27"/>
      <point x="355" y="84" type="curve" smooth="yes"/>
      <point x="355" y="662" type="line"/>
      <point x="692" y="662" type="line" smooth="yes"/>
      <point x="994" y="662"/>
      <point x="966" y="574"/>
      <point x="1014" y="81" type="curve" smooth="yes"/>
      <point x="1019" y="26"/>
      <point x="1063" y="0"/>
      <point x="1106" y="0" type="curve" smooth="yes"/>
      <point x="1154" y="0"/>
      <point x="1196" y="30"/>
      <point x="1196" y="87" type="curve"/>
      <point x="1189" y="178" type="line" smooth="yes"/>
      <point x="1176" y="334"/>
      <point x="1219" y="692"/>
      <point x="909" y="740" type="curve"/>
      <point x="909" y="744" type="line"/>
      <point x="1096" y="785"/>
      <point x="1201" y="899"/>
      <point x="1201" y="1056" type="curve" smooth="yes"/>
      <point x="1201" y="1357"/>
      <point x="940" y="1426"/>
      <point x="695" y="1426" type="curve" smooth="yes"/>
      <point x="267" y="1426" type="line" smooth="yes"/>
      <point x="218" y="1426"/>
      <point x="178" y="1387"/>
      <point x="178" y="1340" type="curve" smooth="yes"/>
      <point x="178" y="84" type="line" smooth="yes"/>
      <point x="178" y="28"/>
      <point x="222" y="0"/>
    </contour>
    <contour>
      <point x="355" y="801" type="line"/>
      <point x="355" y="1286" type="line"/>
      <point x="681" y="1286" type="line" smooth="yes"/>
      <point x="824" y="1286"/>
      <point x="1016" y="1269"/>
      <point x="1016" y="1044" type="curve" smooth="yes"/>
      <point x="1016" y="816"/>
      <point x="797" y="801"/>
      <point x="617" y="801" type="curve" smooth="yes"/>
    </contour>
    <contour>
      <point x="701" y="0" type="move" name="bot"/>
    </contour>
    <contour>
      <point x="684" y="1438" type="move" name="top"/>
    </contour>
  </outline>
</glyph>
<glyph name="S" format="1">
  <advance width="1274"/>
  <unicode hex="0053"/>
  <outline>
    <contour>
      <point x="629" y="-22" type="curve" smooth="yes"/>
      <point x="940" y="-22"/>
      <point x="1143" y="116"/>
      <point x="1154" y="360" type="curve" smooth="yes"/>
      <point x="1165" y="598"/>
      <point x="1015" y="692"/>
      <point x="807" y="760" type="curve" smooth="yes"/>
      <point x="535" y="849" type="line" smooth="yes"/>
      <point x="390" y="896"/>
      <point x="316" y="945"/>
      <point x="316" y="1068" type="curve" smooth="yes"/>
      <point x="316" y="1209"/>
      <point x="449" y="1300"/>
      <point x="654" y="1300" type="curve" smooth="yes"/>
      <point x="804" y="1300"/>
      <point x="915" y="1236"/>
      <point x="1001" y="1172" type="curve"/>
      <point x="1025" y="1148"/>
      <point x="1047" y="1136"/>
      <point x="1066" y="1136" type="curve" smooth="yes"/>
      <point x="1115" y="1136"/>
      <point x="1128" y="1173"/>
      <point x="1128" y="1203" type="curve" smooth="yes"/>
      <point x="1128" y="1220"/>
      <point x="1126" y="1235"/>
      <point x="1115" y="1247" type="curve" smooth="yes"/>
      <point x="994" y="1376"/>
      <point x="839" y="1438"/>
      <point x="640" y="1438" type="curve" smooth="yes"/>
      <point x="379" y="1438"/>
      <point x="145" y="1294"/>
      <point x="145" y="1064" type="curve" smooth="yes"/>
      <point x="145" y="864"/>
      <point x="268" y="765"/>
      <point x="459" y="704" type="curve" smooth="yes"/>
      <point x="730" y="618" type="line" smooth="yes"/>
      <point x="901" y="564"/>
      <point x="994" y="503"/>
      <point x="979" y="348" type="curve" smooth="yes"/>
      <point x="964" y="189"/>
      <point x="836" y="116"/>
      <point x="647" y="116" type="curve" smooth="yes"/>
      <point x="456" y="116"/>
      <point x="345" y="180"/>
      <point x="255" y="245" type="curve" smooth="yes"/>
      <point x="231" y="262"/>
      <point x="207" y="287"/>
      <point x="183" y="287" type="curve" smooth="yes"/>
      <point x="154" y="287"/>
      <point x="121" y="243"/>
      <point x="121" y="206" type="curve" smooth="yes"/>
      <point x="121" y="191"/>
      <point x="126" y="178"/>
      <point x="136" y="166" type="curve" smooth="yes"/>
      <point x="227" y="57"/>
      <point x="410" y="-22"/>
    </contour>
    <contour>
      <point x="637" y="9" type="move" name="bot"/>
    </contour>
    <contour>
      <point x="646" y="1438" type="move" name="top"/>
    </contour>
  </outline>
</glyph>
<glyph name="T" format="1">
  <advance width="1158"/>
  <unicode hex="0054"/>
  <outline>
    <contour>
      <point x="582" y="0" type="curve" smooth="yes"/>
      <point x="626" y="0"/>
      <point x="671" y="29"/>
      <point x="671" y="85" type="curve" smooth="yes"/>
      <point x="671" y="1285" type="line"/>
      <point x="1056" y="1285" type="line" smooth="yes"/>
      <point x="1105" y="1285"/>
      <point x="1131" y="1319"/>
      <point x="1131" y="1355" type="curve" smooth="yes"/>
      <point x="1131" y="1392"/>
      <point x="1107" y="1426"/>
      <point x="1056" y="1426" type="curve" smooth="yes"/>
      <point x="101" y="1426" type="line" smooth="yes"/>
      <point x="52" y="1426"/>
      <point x="27" y="1392"/>
      <point x="27" y="1355" type="curve" smooth="yes"/>
      <point x="27" y="1319"/>
      <point x="52" y="1285"/>
      <point x="101" y="1285" type="curve" smooth="yes"/>
      <point x="493" y="1285" type="line"/>
      <point x="493" y="85" type="line" smooth="yes"/>
      <point x="493" y="29"/>
      <point x="537" y="0"/>
    </contour>
    <contour>
      <point x="582" y="9" type="move" name="bot"/>
    </contour>
    <contour>
      <point x="588" y="739" type="move" name="mid"/>
    </contour>
    <contour>
      <point x="596" y="1438" type="move" name="top"/>
    </contour>
  </outline>
</glyph>
<glyph name="U" format="1">
  <advance width="1490"/>
  <unicode hex="0055"/>
  <outline>
    <contour>
      <point x="745" y="-22" type="curve" smooth="yes"/>
      <point x="1033" y="-22"/>
      <point x="1302" y="145"/>
      <point x="1302" y="496" type="curve" smooth="yes"/>
      <point x="1302" y="1341" type="line" smooth="yes"/>
      <point x="1302" y="1398"/>
      <point x="1258" y="1426"/>
      <point x="1214" y="1426" type="curve" smooth="yes"/>
      <point x="1168" y="1426"/>
      <point x="1124" y="1397"/>
      <point x="1124" y="1341" type="curve" smooth="yes"/>
      <point x="1124" y="500" type="line" smooth="yes"/>
      <point x="1124" y="242"/>
      <point x="934" y="124"/>
      <point x="745" y="124" type="curve" smooth="yes"/>
      <point x="556" y="124"/>
      <point x="367" y="242"/>
      <point x="367" y="500" type="curve" smooth="yes"/>
      <point x="367" y="1341" type="line" smooth="yes"/>
      <point x="367" y="1398"/>
      <point x="323" y="1426"/>
      <point x="279" y="1426" type="curve" smooth="yes"/>
      <point x="233" y="1426"/>
      <point x="189" y="1397"/>
      <point x="189" y="1341" type="curve" smooth="yes"/>
      <point x="189" y="496" type="line" smooth="yes"/>
      <point x="189" y="145"/>
      <point x="457" y="-22"/>
    </contour>
    <contour>
      <point x="858" y="9" type="move" name="ogonek"/>
    </contour>
    <contour>
      <point x="756" y="1438" type="move" name="top"/>
    </contour>
  </outline>
</glyph>
<glyph name="V" format="1">
  <advance width="1289"/>
  <unicode hex="0056"/>
  <outline>
    <contour>
      <point x="644" y="-5" type="curve" smooth="yes"/>
      <point x="712" y="-5"/>
      <point x="764" y="38"/>
      <point x="793" y="117" type="curve" smooth="yes"/>
      <point x="1243" y="1324" type="line" smooth="yes"/>
      <point x="1247" y="1335"/>
      <point x="1248" y="1342"/>
      <point x="1248" y="1351" type="curve" smooth="yes"/>
      <point x="1248" y="1395"/>
      <point x="1203" y="1427"/>
      <point x="1160" y="1427" type="curve" smooth="yes"/>
      <point x="1125" y="1427"/>
      <point x="1090" y="1408"/>
      <point x="1076" y="1369" type="curve" smooth="yes"/>
      <point x="651" y="192" type="line"/>
      <point x="650" y="190" type="line"/>
      <point x="214" y="1370" type="line" smooth="yes"/>
      <point x="200" y="1407"/>
      <point x="170" y="1427"/>
      <point x="135" y="1427" type="curve" smooth="yes"/>
      <point x="90" y="1427"/>
      <point x="43" y="1392"/>
      <point x="43" y="1344" type="curve" smooth="yes"/>
      <point x="43" y="1336"/>
      <point x="44" y="1326"/>
      <point x="48" y="1318" type="curve"/>
      <point x="501" y="117" type="line" smooth="yes"/>
      <point x="532" y="35"/>
      <point x="581" y="-5"/>
    </contour>
  </outline>
</glyph>
<glyph name="X" format="1">
  <advance width="1274"/>
  <unicode hex="0058"/>
  <outline>
    <contour>
      <point x="151" y="0" type="curve" smooth="yes"/>
      <point x="176" y="0"/>
      <point x="201" y="12"/>
      <point x="222" y="41" type="curve" smooth="yes"/>
      <point x="641" y="616" type="line"/>
      <point x="746" y="734" type="line"/>
      <point x="1175" y="1310" type="line" smooth="yes"/>
      <point x="1186" y="1325"/>
      <point x="1190" y="1338"/>
      <point x="1190" y="1353" type="curve" smooth="yes"/>
      <point x="1190" y="1393"/>
      <point x="1153" y="1426"/>
      <point x="1110" y="1426" type="curve" smooth="yes"/>
      <point x="1083" y="1426"/>
      <point x="1058" y="1414"/>
      <point x="1037" y="1385" type="curve" smooth="yes"/>
      <point x="648" y="844" type="line"/>
      <point x="542" y="732" type="line"/>
      <point x="84" y="121" type="line" smooth="yes"/>
      <point x="73" y="106"/>
      <point x="68" y="91"/>
      <point x="68" y="76" type="curve" smooth="yes"/>
      <point x="68" y="35"/>
      <point x="108" y="0"/>
    </contour>
    <contour>
      <point x="1104" y="0" type="curve" smooth="yes"/>
      <point x="1151" y="0"/>
      <point x="1200" y="40"/>
      <point x="1200" y="85" type="curve" smooth="yes"/>
      <point x="1200" y="98"/>
      <point x="1195" y="113"/>
      <point x="1186" y="126" type="curve"/>
      <point x="272" y="1385" type="line"/>
      <point x="252" y="1414"/>
      <point x="225" y="1426"/>
      <point x="197" y="1426" type="curve" smooth="yes"/>
      <point x="149" y="1426"/>
      <point x="100" y="1388"/>
      <point x="100" y="1343" type="curve" smooth="yes"/>
      <point x="100" y="1328"/>
      <point x="105" y="1315"/>
      <point x="114" y="1303" type="curve"/>
      <point x="1033" y="40" type="line"/>
      <point x="1052" y="13"/>
      <point x="1076" y="0"/>
    </contour>
  </outline>
</glyph>
<glyph name="Y" format="1">
  <advance width="1278"/>
  <unicode hex="0059"/>
  <outline>
    <contour>
      <point x="640" y="0" type="curve" smooth="yes"/>
      <point x="685" y="0"/>
      <point x="730" y="29"/>
      <point x="730" y="85" type="curve" smooth="yes"/>
      <point x="730" y="607" type="line"/>
      <point x="1200" y="1320" type="line" smooth="yes"/>
      <point x="1208" y="1333"/>
      <point x="1211" y="1346"/>
      <point x="1212" y="1358" type="curve"/>
      <point x="1212" y="1398"/>
      <point x="1171" y="1426"/>
      <point x="1130" y="1426" type="curve" smooth="yes"/>
      <point x="1102" y="1426"/>
      <point x="1075" y="1414"/>
      <point x="1058" y="1383" type="curve"/>
      <point x="655" y="758" type="line"/>
      <point x="653" y="758" type="line"/>
      <point x="249" y="1382" type="line"/>
      <point x="232" y="1413"/>
      <point x="203" y="1426"/>
      <point x="174" y="1426" type="curve" smooth="yes"/>
      <point x="126" y="1426"/>
      <point x="75" y="1389"/>
      <point x="75" y="1344" type="curve"/>
      <point x="76" y="1332"/>
      <point x="79" y="1319"/>
      <point x="87" y="1307" type="curve" smooth="yes"/>
      <point x="551" y="602" type="line"/>
      <point x="551" y="85" type="line" smooth="yes"/>
      <point x="551" y="29"/>
      <point x="595" y="0"/>
    </contour>
    <contour>
      <point x="666" y="1438" type="move" name="top"/>
    </contour>
  </outline>
</glyph>
<glyph name="Z" format="1">
  <advance width="1165"/>
  <unicode hex="005A"/>
  <outline>
    <contour>
      <point x="208" y="0" type="curve" smooth="yes"/>
      <point x="1029" y="0" type="line" smooth="yes"/>
      <point x="1078" y="0"/>
      <point x="1103" y="36"/>
      <point x="1103" y="73" type="curve" smooth="yes"/>
      <point x="1103" y="109"/>
      <point x="1078" y="145"/>
      <point x="1029" y="145" type="curve" smooth="yes"/>
      <point x="299" y="145" type="line"/>
      <point x="1088" y="1273" type="line" smooth="yes"/>
      <point x="1105" y="1297"/>
      <point x="1112" y="1322"/>
      <point x="1112" y="1343" type="curve" smooth="yes"/>
      <point x="1112" y="1391"/>
      <point x="1077" y="1426"/>
      <point x="1021" y="1426" type="curve" smooth="yes"/>
      <point x="181" y="1426" type="line" smooth="yes"/>
      <point x="132" y="1426"/>
      <point x="108" y="1390"/>
      <point x="108" y="1354" type="curve" smooth="yes"/>
      <point x="108" y="1317"/>
      <point x="133" y="1281"/>
      <point x="181" y="1281" type="curve" smooth="yes"/>
      <point x="910" y="1281" type="line"/>
      <point x="120" y="153" type="line" smooth="yes"/>
      <point x="107" y="134"/>
      <point x="100" y="113"/>
      <point x="100" y="90" type="curve" smooth="yes"/>
      <point x="100" y="44"/>
      <point x="132" y="0"/>
    </contour>
    <contour>
      <point x="636" y="1438" type="move" name="top"/>
    </contour>
  </outline>
</glyph>
<glyph name="a" format="1">
  <advance width="1040"/>
  <unicode hex="0061"/>
  <outline>
    <contour>
      <point x="420" y="-20" type="curve" smooth="yes"/>
      <point x="592" y="-20"/>
      <point x="682" y="71"/>
      <point x="737" y="187" type="curve"/>
      <point x="737" y="68" type="line" smooth="yes"/>
      <point x="737" y="21"/>
      <point x="778" y="0"/>
      <point x="815" y="0" type="curve" smooth="yes"/>
      <point x="854" y="0"/>
      <point x="897" y="24"/>
      <point x="897" y="71" type="curve" smooth="yes"/>
      <point x="897" y="673" type="line" smooth="yes"/>
      <point x="897" y="912"/>
      <point x="744" y="1013"/>
      <point x="513" y="1013" type="curve" smooth="yes"/>
      <point x="356" y="1013"/>
      <point x="236" y="979"/>
      <point x="142" y="922" type="curve" smooth="yes"/>
      <point x="87" y="888"/>
      <point x="148" y="802"/>
      <point x="206" y="831" type="curve" smooth="yes"/>
      <point x="290" y="870"/>
      <point x="373" y="904"/>
      <point x="509" y="904" type="curve" smooth="yes"/>
      <point x="645" y="904"/>
      <point x="737" y="841"/>
      <point x="737" y="688" type="curve" smooth="yes"/>
      <point x="737" y="571" type="line"/>
      <point x="233" y="571"/>
      <point x="67" y="524"/>
      <point x="67" y="268" type="curve" smooth="yes"/>
      <point x="67" y="78"/>
      <point x="216" y="-20"/>
    </contour>
    <contour>
      <point x="439" y="88" type="curve"/>
      <point x="320" y="88"/>
      <point x="225" y="147"/>
      <point x="225" y="280" type="curve" smooth="yes"/>
      <point x="225" y="446"/>
      <point x="334" y="475"/>
      <point x="735" y="475" type="curve"/>
      <point x="735" y="443" type="line"/>
      <point x="735" y="229"/>
      <point x="583" y="88"/>
    </contour>
    <contour>
      <point x="814" y="9" type="move" name="ogonek"/>
    </contour>
    <contour>
      <point x="505" y="991" type="move" name="top"/>
    </contour>
  </outline>
</glyph>
<glyph name="b" format="1">
  <advance width="1181"/>
  <unicode hex="0062"/>
  <outline>
    <contour>
      <point x="666" y="-20" type="curve" smooth="yes"/>
      <point x="957" y="-20"/>
      <point x="1095" y="225"/>
      <point x="1095" y="502" type="curve" smooth="yes"/>
      <point x="1095" y="777"/>
      <point x="939" y="1013"/>
      <point x="650" y="1013" type="curve" smooth="yes"/>
      <point x="503" y="1013"/>
      <point x="376" y="942"/>
      <point x="318" y="814" type="curve"/>
      <point x="318" y="1351" type="line" smooth="yes"/>
      <point x="318" y="1400"/>
      <point x="278" y="1425"/>
      <point x="238" y="1425" type="curve" smooth="yes"/>
      <point x="198" y="1425"/>
      <point x="158" y="1400"/>
      <point x="158" y="1351" type="curve" smooth="yes"/>
      <point x="158" y="76" type="line" smooth="yes"/>
      <point x="158" y="27"/>
      <point x="197" y="3"/>
      <point x="237" y="3" type="curve" smooth="yes"/>
      <point x="297" y="3"/>
      <point x="318" y="38"/>
      <point x="318" y="76" type="curve" smooth="yes"/>
      <point x="318" y="183" type="line"/>
      <point x="384" y="46"/>
      <point x="516" y="-20"/>
    </contour>
    <contour>
      <point x="645" y="90" type="curve"/>
      <point x="395" y="90"/>
      <point x="319" y="279"/>
      <point x="319" y="501" type="curve" smooth="yes"/>
      <point x="319" y="701"/>
      <point x="407" y="903"/>
      <point x="632" y="903" type="curve" smooth="yes"/>
      <point x="859" y="903"/>
      <point x="935" y="685"/>
      <point x="935" y="496" type="curve" smooth="yes"/>
      <point x="935" y="316"/>
      <point x="869" y="93"/>
    </contour>
    <contour>
      <point x="670" y="1001" type="move" name="top"/>
    </contour>
  </outline>
</glyph>
<glyph name="f" format="1">
  <advance width="696"/>
  <unicode hex="0066"/>
  <outline>
    <contour>
      <point x="321" y="0" type="curve" smooth="yes"/>
      <point x="362" y="0"/>
      <point x="402" y="27"/>
      <point x="402" y="79" type="curve" smooth="yes"/>
      <point x="402" y="876" type="line"/>
      <point x="582" y="876" type="line" smooth="yes"/>
      <point x="625" y="876"/>
      <point x="638" y="897"/>
      <point x="638" y="928" type="curve" smooth="yes"/>
      <point x="638" y="957"/>
      <point x="625" y="981"/>
      <point x="582" y="981" type="curve" smooth="yes"/>
      <point x="402" y="981" type="line"/>
      <point x="402" y="1053" type="line" smooth="yes"/>
      <point x="402" y="1285"/>
      <point x="436" y="1318"/>
      <point x="548" y="1318" type="curve" smooth="yes"/>
      <point x="633" y="1318" type="line" smooth="yes"/>
      <point x="710" y="1318"/>
      <point x="707" y="1438"/>
      <point x="634" y="1438" type="curve" smooth="yes"/>
      <point x="514" y="1438" type="line" smooth="yes"/>
      <point x="361" y="1438"/>
      <point x="242" y="1371"/>
      <point x="242" y="1112" type="curve" smooth="yes"/>
      <point x="242" y="981" type="line"/>
      <point x="102" y="981" type="line" smooth="yes"/>
      <point x="59" y="981"/>
      <point x="43" y="957"/>
      <point x="43" y="928" type="curve" smooth="yes"/>
      <point x="43" y="899"/>
      <point x="59" y="876"/>
      <point x="102" y="876" type="curve" smooth="yes"/>
      <point x="242" y="876" type="line"/>
      <point x="242" y="79" type="line" smooth="yes"/>
      <point x="242" y="26"/>
      <point x="282" y="0"/>
    </contour>
  </outline>
</glyph>
<glyph name="j" format="1">
  <advance width="496.026"/>
  <unicode hex="006A"/>
  <outline>
    <contour>
      <point x="21" y="-377" type="curve" smooth="yes"/>
      <point x="325" y="-377"/>
      <point x="340" y="-282"/>
      <point x="340" y="-33" type="curve" smooth="yes"/>
      <point x="340" y="911" type="line" smooth="yes"/>
      <point x="340" y="964"/>
      <point x="300" y="991"/>
      <point x="261" y="991" type="curve" smooth="yes"/>
      <point x="220" y="991"/>
      <point x="179" y="964"/>
      <point x="179" y="911" type="curve" smooth="yes"/>
      <point x="179" y="-72" type="line" smooth="yes"/>
      <point x="179" y="-236"/>
      <point x="161" y="-251"/>
      <point x="21" y="-251" type="curve" smooth="yes"/>
      <point x="-56" y="-251"/>
      <point x="-58" y="-377"/>
    </contour>
    <contour>
      <point x="256" y="1234" type="curve" smooth="yes"/>
      <point x="321" y="1234"/>
      <point x="365" y="1275"/>
      <point x="365" y="1336" type="curve" smooth="yes"/>
      <point x="365" y="1397"/>
      <point x="322" y="1438"/>
      <point x="257" y="1438" type="curve" smooth="yes"/>
      <point x="192" y="1438"/>
      <point x="148" y="1397"/>
      <point x="148" y="1336" type="curve" smooth="yes"/>
      <point x="148" y="1275"/>
      <point x="191" y="1234"/>
    </contour>
  </outline>
</glyph>
<glyph name="k" format="1">
  <advance width="984"/>
  <unicode hex="006B"/>
  <outline>
    <contour>
      <point x="236" y="0" type="curve" smooth="yes"/>
      <point x="277" y="0"/>
      <point x="318" y="28"/>
      <point x="318" y="81" type="curve" smooth="yes"/>
      <point x="318" y="536" type="line"/>
      <point x="793" y="27" type="line" smooth="yes"/>
      <point x="809" y="9"/>
      <point x="828" y="1"/>
      <point x="845" y="1" type="curve" smooth="yes"/>
      <point x="883" y="1"/>
      <point x="922" y="33"/>
      <point x="922" y="71" type="curve" smooth="yes"/>
      <point x="922" y="84"/>
      <point x="918" y="99"/>
      <point x="906" y="112" type="curve" smooth="yes"/>
      <point x="492" y="554" type="line"/>
      <point x="873" y="889" type="line" smooth="yes"/>
      <point x="888" y="902"/>
      <point x="894" y="918"/>
      <point x="894" y="933" type="curve" smooth="yes"/>
      <point x="894" y="968"/>
      <point x="858" y="1002"/>
      <point x="821" y="1002" type="curve" smooth="yes"/>
      <point x="802" y="1002"/>
      <point x="785" y="994"/>
      <point x="770" y="979" type="curve"/>
      <point x="318" y="574" type="line"/>
      <point x="318" y="1345" type="line" smooth="yes"/>
      <point x="318" y="1398"/>
      <point x="278" y="1425"/>
      <point x="239" y="1425" type="curve" smooth="yes"/>
      <point x="199" y="1425"/>
      <point x="158" y="1398"/>
      <point x="158" y="1345" type="curve" smooth="yes"/>
      <point x="158" y="81" type="line" smooth="yes"/>
      <point x="158" y="25"/>
      <point x="197" y="0"/>
    </contour>
    <contour>
      <point x="519" y="0" type="move" name="bot"/>
    </contour>
  </outline>
</glyph>
<glyph name="m" format="1">
  <advance width="1838"/>
  <unicode hex="006D"/>
  <outline>
    <contour>
      <point x="237" y="0" type="curve" smooth="yes"/>
      <point x="278" y="0"/>
      <point x="319" y="24"/>
      <point x="319" y="75" type="curve" smooth="yes"/>
      <point x="319" y="576" type="line" smooth="yes"/>
      <point x="319" y="789"/>
      <point x="440" y="904"/>
      <point x="619" y="904" type="curve" smooth="yes"/>
      <point x="760" y="904"/>
      <point x="845" y="815"/>
      <point x="845" y="606" type="curve" smooth="yes"/>
      <point x="845" y="76" type="line" smooth="yes"/>
      <point x="845" y="25"/>
      <point x="884" y="0"/>
      <point x="924" y="0" type="curve" smooth="yes"/>
      <point x="964" y="0"/>
      <point x="1005" y="25"/>
      <point x="1005" y="76" type="curve" smooth="yes"/>
      <point x="1005" y="579" type="line" smooth="yes"/>
      <point x="1005" y="809"/>
      <point x="1146" y="904"/>
      <point x="1304" y="904" type="curve" smooth="yes"/>
      <point x="1449" y="904"/>
      <point x="1532" y="816"/>
      <point x="1532" y="642" type="curve" smooth="yes"/>
      <point x="1532" y="75" type="line" smooth="yes"/>
      <point x="1532" y="24"/>
      <point x="1571" y="0"/>
      <point x="1611" y="0" type="curve" smooth="yes"/>
      <point x="1651" y="0"/>
      <point x="1692" y="24"/>
      <point x="1692" y="75" type="curve" smooth="yes"/>
      <point x="1692" y="633" type="line" smooth="yes"/>
      <point x="1692" y="906"/>
      <point x="1524" y="1013"/>
      <point x="1335" y="1013" type="curve" smooth="yes"/>
      <point x="1157" y="1013"/>
      <point x="1027" y="937"/>
      <point x="972" y="775" type="curve"/>
      <point x="929" y="938"/>
      <point x="802" y="1013"/>
      <point x="644" y="1013" type="curve" smooth="yes"/>
      <point x="495" y="1013"/>
      <point x="372" y="939"/>
      <point x="319" y="816" type="curve"/>
      <point x="319" y="921" type="line" smooth="yes"/>
      <point x="319" y="968"/>
      <point x="277" y="991"/>
      <point x="239" y="991" type="curve" smooth="yes"/>
      <point x="199" y="991"/>
      <point x="158" y="966"/>
      <point x="158" y="918" type="curve" smooth="yes"/>
      <point x="158" y="75" type="line" smooth="yes"/>
      <point x="158" y="24"/>
      <point x="197" y="0"/>
    </contour>
    <contour>
      <point x="958" y="991" type="move" name="top"/>
    </contour>
  </outline>
</glyph>
<glyph name="n" format="1">
  <advance width="1152"/>
  <unicode hex="006E"/>
  <outline>
    <contour>
      <point x="237" y="0" type="curve" smooth="yes"/>
      <point x="277" y="0"/>
      <point x="318" y="26"/>
      <point x="318" y="75" type="curve" smooth="yes"/>
      <point x="318" y="598" type="line"/>
      <point x="331" y="795"/>
      <point x="452" y="903"/>
      <point x="608" y="903" type="curve" smooth="yes"/>
      <point x="765" y="903"/>
      <point x="846" y="806"/>
      <point x="846" y="626" type="curve" smooth="yes"/>
      <point x="846" y="75" type="line" smooth="yes"/>
      <point x="846" y="24"/>
      <point x="886" y="0"/>
      <point x="926" y="0" type="curve" smooth="yes"/>
      <point x="966" y="0"/>
      <point x="1006" y="24"/>
      <point x="1006" y="75" type="curve" smooth="yes"/>
      <point x="1006" y="624" type="line" smooth="yes"/>
      <point x="1006" y="897"/>
      <point x="862" y="1013"/>
      <point x="645" y="1013" type="curve" smooth="yes"/>
      <point x="496" y="1013"/>
      <point x="366" y="944"/>
      <point x="318" y="814" type="curve"/>
      <point x="318" y="917" type="line" smooth="yes"/>
      <point x="318" y="966"/>
      <point x="278" y="990"/>
      <point x="239" y="990" type="curve" smooth="yes"/>
      <point x="199" y="990"/>
      <point x="158" y="966"/>
      <point x="158" y="915" type="curve" smooth="yes"/>
      <point x="158" y="75" type="line" smooth="yes"/>
      <point x="158" y="24"/>
      <point x="197" y="0"/>
    </contour>
    <contour>
      <point x="580" y="0" type="move" name="bot"/>
    </contour>
    <contour>
      <point x="616" y="991" type="move" name="top"/>
    </contour>
    <contour>
      <point x="219" y="1113" type="move" name="top.2"/>
    </contour>
  </outline>
</glyph>
<glyph name="s" format="1">
  <advance width="1007"/>
  <unicode hex="0073"/>
  <outline>
    <contour>
      <point x="511" y="-20" type="curve" smooth="yes"/>
      <point x="738" y="-20"/>
      <point x="913" y="79"/>
      <point x="903" y="302" type="curve" smooth="yes"/>
      <point x="898" y="414"/>
      <point x="833" y="513"/>
      <point x="632" y="562" type="curve" smooth="yes"/>
      <point x="453" y="606" type="line" smooth="yes"/>
      <point x="301" y="643"/>
      <point x="268" y="662"/>
      <point x="268" y="749" type="curve" smooth="yes"/>
      <point x="268" y="858"/>
      <point x="369" y="903"/>
      <point x="518" y="903" type="curve" smooth="yes"/>
      <point x="640" y="903"/>
      <point x="738" y="856"/>
      <point x="785" y="839" type="curve" smooth="yes"/>
      <point x="864" y="811"/>
      <point x="894" y="903"/>
      <point x="831" y="937" type="curve" smooth="yes"/>
      <point x="777" y="966"/>
      <point x="653" y="1013"/>
      <point x="510" y="1013" type="curve" smooth="yes"/>
      <point x="310" y="1013"/>
      <point x="116" y="943"/>
      <point x="118" y="740" type="curve" smooth="yes"/>
      <point x="120" y="564"/>
      <point x="234" y="526"/>
      <point x="413" y="482" type="curve" smooth="yes"/>
      <point x="596" y="437" type="line" smooth="yes"/>
      <point x="716" y="408"/>
      <point x="763" y="359"/>
      <point x="767" y="283" type="curve" smooth="yes"/>
      <point x="774" y="155"/>
      <point x="670" y="90"/>
      <point x="516" y="90" type="curve" smooth="yes"/>
      <point x="397" y="90"/>
      <point x="294" y="129"/>
      <point x="218" y="176" type="curve" smooth="yes"/>
      <point x="140" y="224"/>
      <point x="84" y="134"/>
      <point x="148" y="87" type="curve" smooth="yes"/>
      <point x="217" y="36"/>
      <point x="363" y="-20"/>
    </contour>
    <contour>
      <point x="511.0" y="0.0" type="move" name="bot"/>
    </contour>
    <contour>
      <point x="484.0" y="1001.0" type="move" name="top"/>
    </contour>
  </outline>
</glyph>
<glyph name="t" format="1">
  <advance width="706"/>
  <unicode hex="0074"/>
  <outline>
    <contour>
      <point x="473" y="-17" type="curve" smooth="yes"/>
      <point x="534" y="-17"/>
      <point x="590" y="-15"/>
      <point x="618" y="-10" type="curve" smooth="yes"/>
      <point x="692" y="3"/>
      <point x="683" y="116"/>
      <point x="598" y="112" type="curve" smooth="yes"/>
      <point x="533" y="109" type="line" smooth="yes"/>
      <point x="441" y="105"/>
      <point x="394" y="151"/>
      <point x="394" y="308" type="curve" smooth="yes"/>
      <point x="394" y="876" type="line"/>
      <point x="583" y="876" type="line" smooth="yes"/>
      <point x="626" y="876"/>
      <point x="643" y="896"/>
      <point x="643" y="927" type="curve" smooth="yes"/>
      <point x="643" y="958"/>
      <point x="626" y="981"/>
      <point x="583" y="981" type="curve" smooth="yes"/>
      <point x="394" y="981" type="line"/>
      <point x="394" y="1275" type="line" smooth="yes"/>
      <point x="394" y="1320"/>
      <point x="363" y="1341"/>
      <point x="330" y="1341" type="curve" smooth="yes"/>
      <point x="298" y="1341"/>
      <point x="256" y="1308"/>
      <point x="254" y="1272" type="curve" smooth="yes"/>
      <point x="234" y="981" type="line"/>
      <point x="106" y="981" type="line" smooth="yes"/>
      <point x="63" y="981"/>
      <point x="44" y="959"/>
      <point x="44" y="928" type="curve" smooth="yes"/>
      <point x="44" y="897"/>
      <point x="63" y="876"/>
      <point x="106" y="876" type="curve" smooth="yes"/>
      <point x="234" y="876" type="line"/>
      <point x="234" y="289" type="line" smooth="yes"/>
      <point x="234" y="60"/>
      <point x="340" y="-17"/>
    </contour>
    <contour>
      <point x="439" y="9" type="move" name="bot"/>
    </contour>
  </outline>
</glyph>
<glyph name="v" format="1">
  <advance width="1027"/>
  <unicode hex="0076"/>
  <outline>
    <contour>
      <point x="518" y="0" type="line"/>
      <point x="589" y="0"/>
      <point x="618" y="36"/>
      <point x="654" y="121" type="curve" smooth="yes"/>
      <point x="979" y="890" type="line" smooth="yes"/>
      <point x="1000" y="940"/>
      <point x="968" y="991"/>
      <point x="907" y="991" type="curve" smooth="yes"/>
      <point x="878" y="991"/>
      <point x="850" y="975"/>
      <point x="836" y="940" type="curve" smooth="yes"/>
      <point x="518" y="166" type="line"/>
    </contour>
    <contour>
      <point x="518" y="0" type="curve"/>
      <point x="518" y="166" type="line"/>
      <point x="200" y="940" type="line" smooth="yes"/>
      <point x="186" y="975"/>
      <point x="158" y="991"/>
      <point x="129" y="991" type="curve" smooth="yes"/>
      <point x="68" y="991"/>
      <point x="36" y="940"/>
      <point x="57" y="890" type="curve" smooth="yes"/>
      <point x="382" y="121" type="line" smooth="yes"/>
      <point x="418" y="36"/>
      <point x="447" y="0"/>
    </contour>
  </outline>
</glyph>
<glyph name="w" format="1">
  <advance width="1699"/>
  <unicode hex="0077"/>
  <outline>
    <contour>
      <point x="1241" y="0" type="curve" smooth="yes"/>
      <point x="1285" y="0"/>
      <point x="1324" y="26"/>
      <point x="1346" y="88" type="curve" smooth="yes"/>
      <point x="1634" y="888" type="line"/>
      <point x="1637" y="899"/>
      <point x="1639" y="909"/>
      <point x="1639" y="916" type="curve" smooth="yes"/>
      <point x="1639" y="962"/>
      <point x="1606" y="991"/>
      <point x="1566" y="991" type="curve" smooth="yes"/>
      <point x="1535" y="991"/>
      <point x="1508" y="974"/>
      <point x="1495" y="936" type="curve" smooth="yes"/>
      <point x="1230" y="173" type="line"/>
      <point x="968" y="899" type="line" smooth="yes"/>
      <point x="947" y="959"/>
      <point x="910" y="991"/>
      <point x="859" y="991" type="curve"/>
      <point x="859" y="839" type="line"/>
      <point x="1130" y="96" type="line"/>
      <point x="1154" y="30"/>
      <point x="1194" y="0"/>
    </contour>
    <contour>
      <point x="477" y="0" type="curve" smooth="yes"/>
      <point x="524" y="0"/>
      <point x="564" y="30"/>
      <point x="588" y="96" type="curve"/>
      <point x="859" y="839" type="line"/>
      <point x="859" y="991" type="line"/>
      <point x="808" y="991"/>
      <point x="771" y="959"/>
      <point x="750" y="899" type="curve" smooth="yes"/>
      <point x="488" y="173" type="line"/>
      <point x="223" y="936" type="line" smooth="yes"/>
      <point x="210" y="974"/>
      <point x="183" y="991"/>
      <point x="152" y="991" type="curve" smooth="yes"/>
      <point x="112" y="991"/>
      <point x="79" y="962"/>
      <point x="79" y="916" type="curve" smooth="yes"/>
      <point x="79" y="909"/>
      <point x="81" y="899"/>
      <point x="84" y="888" type="curve"/>
      <point x="372" y="88" type="line" smooth="yes"/>
      <point x="394" y="26"/>
      <point x="433" y="0"/>
    </contour>
    <contour>
      <point x="858" y="1001" type="move" name="top"/>
    </contour>
  </outline>
</glyph>
<glyph name="x" format="1">
  <advance width="1054"/>
  <unicode hex="0078"/>
  <outline>
    <contour>
      <point x="174" y="0" type="curve" smooth="yes"/>
      <point x="195" y="0"/>
      <point x="213" y="10"/>
      <point x="228" y="29" type="curve" smooth="yes"/>
      <point x="533" y="415" type="line"/>
      <point x="613" y="495" type="line"/>
      <point x="921" y="884" type="line" smooth="yes"/>
      <point x="931" y="897"/>
      <point x="936" y="910"/>
      <point x="936" y="924" type="curve" smooth="yes"/>
      <point x="936" y="960"/>
      <point x="901" y="991"/>
      <point x="864" y="991" type="curve" smooth="yes"/>
      <point x="844" y="991"/>
      <point x="824" y="982"/>
      <point x="808" y="961" type="curve" smooth="yes"/>
      <point x="517" y="593" type="line"/>
      <point x="441" y="514" type="line"/>
      <point x="112" y="108" type="line" smooth="yes"/>
      <point x="103" y="97"/>
      <point x="98" y="84"/>
      <point x="98" y="71" type="curve" smooth="yes"/>
      <point x="98" y="34"/>
      <point x="134" y="0"/>
    </contour>
    <contour>
      <point x="880" y="0" type="curve" smooth="yes"/>
      <point x="924" y="0"/>
      <point x="957" y="37"/>
      <point x="957" y="77" type="curve" smooth="yes"/>
      <point x="957" y="92"/>
      <point x="952" y="106"/>
      <point x="941" y="120" type="curve"/>
      <point x="272" y="957" type="line"/>
      <point x="253" y="981"/>
      <point x="230" y="991"/>
      <point x="208" y="991" type="curve" smooth="yes"/>
      <point x="164" y="991"/>
      <point x="131" y="955"/>
      <point x="131" y="913" type="curve" smooth="yes"/>
      <point x="131" y="898"/>
      <point x="135" y="884"/>
      <point x="147" y="869" type="curve"/>
      <point x="816" y="34" type="line"/>
      <point x="834" y="10"/>
      <point x="857" y="0"/>
    </contour>
  </outline>
</glyph>
<glyph name="y" format="1">
  <advance width="1029"/>
  <unicode hex="0079"/>
  <outline>
    <contour>
      <point x="365" y="-388" type="curve" smooth="yes"/>
      <point x="396" y="-388"/>
      <point x="424" y="-373"/>
      <point x="442" y="-334" type="curve" smooth="yes"/>
      <point x="1009" y="888" type="line" smooth="yes"/>
      <point x="1013" y="898"/>
      <point x="1016" y="908"/>
      <point x="1016" y="918" type="curve" smooth="yes"/>
      <point x="1018" y="962"/>
      <point x="978" y="990"/>
      <point x="938" y="990" type="curve" smooth="yes"/>
      <point x="910" y="990"/>
      <point x="883" y="977"/>
      <point x="866" y="941" type="curve"/>
      <point x="299" y="-286" type="line" smooth="yes"/>
      <point x="272" y="-344"/>
      <point x="315.633061759" y="-388.0"/>
    </contour>
    <contour>
      <point x="502" y="10" type="line"/>
      <point x="585" y="181" type="line"/>
      <point x="241" y="931" type="line" smooth="yes"/>
      <point x="225" y="966"/>
      <point x="201" y="984"/>
      <point x="171" y="984" type="curve" smooth="yes"/>
      <point x="117" y="984"/>
      <point x="63.9772844545" y="935.640887982"/>
      <point x="91" y="887" type="curve"/>
    </contour>
    <contour>
      <point x="563" y="1001" type="move" name="top"/>
    </contour>
  </outline>
</glyph>
<glyph name="z" format="1">
  <advance width="931"/>
  <unicode hex="007A"/>
  <outline>
    <contour>
      <point x="170" y="0" type="curve" smooth="yes"/>
      <point x="766" y="0" type="line" smooth="yes"/>
      <point x="811" y="0"/>
      <point x="834" y="32"/>
      <point x="834" y="64" type="curve" smooth="yes"/>
      <point x="834" y="95"/>
      <point x="811" y="127"/>
      <point x="766" y="127" type="curve" smooth="yes"/>
      <point x="271" y="127" type="line"/>
      <point x="816" y="851" type="line" smooth="yes"/>
      <point x="833" y="874"/>
      <point x="841" y="896"/>
      <point x="841" y="916" type="curve" smooth="yes"/>
      <point x="841" y="959"/>
      <point x="808" y="991"/>
      <point x="748" y="991" type="curve" smooth="yes"/>
      <point x="161" y="991" type="line" smooth="yes"/>
      <point x="118" y="991"/>
      <point x="96" y="959"/>
      <point x="96" y="927" type="curve" smooth="yes"/>
      <point x="96" y="896"/>
      <point x="117" y="866"/>
      <point x="161" y="866" type="curve" smooth="yes"/>
      <point x="650" y="866" type="line"/>
      <point x="106" y="140" type="line" smooth="yes"/>
      <point x="90" y="119"/>
      <point x="83" y="97"/>
      <point x="83" y="77" type="curve" smooth="yes"/>
      <point x="83" y="34"/>
      <point x="115" y="0"/>
    </contour>
    <contour>
      <point x="468" y="1001" type="move" name="top"/>
    </contour>
  </outline>
</glyph>
<glyph name="braceleft" format="1">
  <advance width="611"/>
  <unicode hex="007B"/>
  <outline>
    <contour>
      <point x="419" y="-207" type="curve" smooth="yes"/>
      <point x="537" y="-207" type="line" smooth="yes"/>
      <point x="576" y="-207"/>
      <point x="594" y="-176"/>
      <point x="594" y="-144" type="curve" smooth="yes"/>
      <point x="594" y="-113"/>
      <point x="576" y="-81"/>
      <point x="537" y="-81" type="curve" smooth="yes"/>
      <point x="474" y="-81" type="line" smooth="yes"/>
      <point x="417" y="-81"/>
      <point x="391" y="-26"/>
      <point x="391" y="70" type="curve" smooth="yes"/>
      <point x="391" y="355" type="line" smooth="yes"/>
      <point x="391" y="544"/>
      <point x="275" y="621"/>
      <point x="248" y="634" type="curve"/>
      <point x="274" y="660"/>
      <point x="391" y="721"/>
      <point x="391" y="915" type="curve" smooth="yes"/>
      <point x="391" y="1203" type="line" smooth="yes"/>
      <point x="391" y="1299"/>
      <point x="417" y="1353"/>
      <point x="474" y="1353" type="curve" smooth="yes"/>
      <point x="537" y="1353" type="line" smooth="yes"/>
      <point x="576" y="1353"/>
      <point x="594" y="1384"/>
      <point x="594" y="1416" type="curve" smooth="yes"/>
      <point x="594" y="1447"/>
      <point x="576" y="1479"/>
      <point x="537" y="1479" type="curve" smooth="yes"/>
      <point x="419" y="1479" type="line" smooth="yes"/>
      <point x="327" y="1479"/>
      <point x="228" y="1387"/>
      <point x="228" y="1252" type="curve" smooth="yes"/>
      <point x="228" y="952" type="line" smooth="yes"/>
      <point x="228" y="804"/>
      <point x="206" y="714"/>
      <point x="83" y="701" type="curve"/>
      <point x="38" y="701"/>
      <point x="16" y="668"/>
      <point x="16" y="633" type="curve" smooth="yes"/>
      <point x="16" y="600"/>
      <point x="38" y="566"/>
      <point x="83" y="566" type="curve"/>
      <point x="207" y="553"/>
      <point x="228" y="464"/>
      <point x="228" y="318" type="curve" smooth="yes"/>
      <point x="228" y="21" type="line" smooth="yes"/>
      <point x="228" y="-115"/>
      <point x="327" y="-207"/>
    </contour>
  </outline>
</glyph>
<glyph name="asciitilde" format="1">
  <advance width="1340"/>
  <unicode hex="007E"/>
  <outline>
    <contour>
      <point x="767" y="1180" type="curve" smooth="yes"/>
      <point x="855" y="1180"/>
      <point x="905" y="1225"/>
      <point x="933" y="1296" type="curve" smooth="yes"/>
      <point x="952" y="1341"/>
      <point x="881" y="1388"/>
      <point x="846" y="1333" type="curve" smooth="yes"/>
      <point x="831" y="1309"/>
      <point x="804" y="1297"/>
      <point x="779" y="1297" type="curve" smooth="yes"/>
      <point x="713" y="1297"/>
      <point x="624" y="1363"/>
      <point x="533" y="1363" type="curve" smooth="yes"/>
      <point x="452" y="1363"/>
      <point x="401" y="1324"/>
      <point x="366" y="1252" type="curve" smooth="yes"/>
      <point x="339" y="1196"/>
      <point x="424" y="1161"/>
      <point x="451" y="1209" type="curve" smooth="yes"/>
      <point x="469" y="1241"/>
      <point x="498" y="1249"/>
      <point x="527" y="1249" type="curve" smooth="yes"/>
      <point x="598" y="1249"/>
      <point x="689" y="1180"/>
    </contour>
  </outline>
</glyph>
<glyph name="cent" format="1">
  <advance width="1031"/>
  <unicode hex="00A2"/>
  <outline>
    <contour>
      <point x="558" y="-291" type="curve" smooth="yes"/>
      <point x="590" y="-291"/>
      <point x="622" y="-270"/>
      <point x="622" y="-227" type="curve" smooth="yes"/>
      <point x="622" y="-26" type="line"/>
      <point x="728" y="-18"/>
      <point x="909" y="23"/>
      <point x="909" y="99" type="curve" smooth="yes"/>
      <point x="909" y="130"/>
      <point x="887" y="160"/>
      <point x="856" y="160" type="curve" smooth="yes"/>
      <point x="851" y="160"/>
      <point x="847" y="159"/>
      <point x="842" y="158" type="curve"/>
      <point x="750" y="121"/>
      <point x="664" y="106"/>
      <point x="591" y="106" type="curve" smooth="yes"/>
      <point x="378" y="106"/>
      <point x="252" y="258"/>
      <point x="252" y="498" type="curve" smooth="yes"/>
      <point x="252" y="765"/>
      <point x="405" y="892"/>
      <point x="597" y="892" type="curve" smooth="yes"/>
      <point x="669" y="892"/>
      <point x="738" y="873"/>
      <point x="823" y="844" type="curve" smooth="yes"/>
      <point x="825" y="843"/>
      <point x="828" y="843"/>
      <point x="832" y="843" type="curve" smooth="yes"/>
      <point x="861" y="843"/>
      <point x="882" y="876"/>
      <point x="882" y="905" type="curve" smooth="yes"/>
      <point x="882" y="970"/>
      <point x="720" y="1009"/>
      <point x="622" y="1017" type="curve"/>
      <point x="622" y="1227" type="line" smooth="yes"/>
      <point x="622" y="1270"/>
      <point x="591" y="1291"/>
      <point x="559" y="1291" type="curve" smooth="yes"/>
      <point x="527" y="1291"/>
      <point x="495" y="1270"/>
      <point x="495" y="1227" type="curve" smooth="yes"/>
      <point x="495" y="1016" type="line"/>
      <point x="247" y="984"/>
      <point x="83" y="756"/>
      <point x="83" y="496" type="curve" smooth="yes"/>
      <point x="83" y="232"/>
      <point x="224" y="2"/>
      <point x="495" y="-25" type="curve"/>
      <point x="495" y="-227" type="line" smooth="yes"/>
      <point x="495" y="-270"/>
      <point x="526" y="-291"/>
    </contour>
  </outline>
</glyph>
<glyph name="yen" format="1">
  <advance width="1177"/>
  <unicode hex="00A5"/>
  <outline>
    <contour>
      <point x="591" y="2" type="curve" smooth="yes"/>
      <point x="636" y="2"/>
      <point x="680" y="29"/>
      <point x="680" y="84" type="curve" smooth="yes"/>
      <point x="680" y="269" type="line"/>
      <point x="1016" y="269" type="line" smooth="yes"/>
      <point x="1057" y="269"/>
      <point x="1077" y="298"/>
      <point x="1077" y="329" type="curve" smooth="yes"/>
      <point x="1077" y="360"/>
      <point x="1057" y="390"/>
      <point x="1016" y="390" type="curve" smooth="yes"/>
      <point x="680" y="390" type="line"/>
      <point x="680" y="505" type="line"/>
      <point x="1016" y="505" type="line" smooth="yes"/>
      <point x="1057" y="505"/>
      <point x="1077" y="534"/>
      <point x="1077" y="565" type="curve" smooth="yes"/>
      <point x="1077" y="596"/>
      <point x="1057" y="626"/>
      <point x="1016" y="626" type="curve" smooth="yes"/>
      <point x="685" y="626" type="line"/>
      <point x="1147" y="1319" type="line" smooth="yes"/>
      <point x="1156" y="1332"/>
      <point x="1159" y="1346"/>
      <point x="1159" y="1358" type="curve" smooth="yes"/>
      <point x="1159" y="1397"/>
      <point x="1121" y="1424"/>
      <point x="1080" y="1424" type="curve" smooth="yes"/>
      <point x="1053" y="1424"/>
      <point x="1025" y="1413"/>
      <point x="1008" y="1382" type="curve"/>
      <point x="603" y="755" type="line"/>
      <point x="200" y="1381" type="line" smooth="yes"/>
      <point x="180" y="1411"/>
      <point x="153" y="1424"/>
      <point x="125" y="1424" type="curve" smooth="yes"/>
      <point x="76" y="1424"/>
      <point x="29" y="1389"/>
      <point x="29" y="1344" type="curve" smooth="yes"/>
      <point x="29" y="1332"/>
      <point x="32" y="1319"/>
      <point x="41" y="1306" type="curve" smooth="yes"/>
      <point x="494" y="626" type="line"/>
      <point x="163" y="626" type="line" smooth="yes"/>
      <point x="122" y="626"/>
      <point x="103" y="596"/>
      <point x="103" y="567" type="curve" smooth="yes"/>
      <point x="103" y="536"/>
      <point x="123" y="505"/>
      <point x="163" y="505" type="curve" smooth="yes"/>
      <point x="502" y="505" type="line"/>
      <point x="502" y="390" type="line"/>
      <point x="163" y="390" type="line" smooth="yes"/>
      <point x="122" y="390"/>
      <point x="102" y="361"/>
      <point x="102" y="330" type="curve" smooth="yes"/>
      <point x="102" y="299"/>
      <point x="123" y="269"/>
      <point x="163" y="269" type="curve" smooth="yes"/>
      <point x="502" y="269" type="line"/>
      <point x="502" y="84" type="line" smooth="yes"/>
      <point x="502" y="29"/>
      <point x="547" y="2"/>
    </contour>
  </outline>
</glyph>
<glyph name="brokenbar" format="1">
  <advance width="455"/>
  <unicode hex="00A6"/>
  <outline>
    <contour>
      <point x="216" y="777" type="curve" smooth="yes"/>
      <point x="270" y="777"/>
      <point x="280" y="821"/>
      <point x="280" y="863" type="curve" smooth="yes"/>
      <point x="280" y="1427" type="line" smooth="yes"/>
      <point x="280" y="1476"/>
      <point x="263" y="1512"/>
      <point x="216" y="1512" type="curve" smooth="yes"/>
      <point x="178" y="1512"/>
      <point x="151" y="1488"/>
      <point x="151" y="1447" type="curve" smooth="yes"/>
      <point x="151" y="863" type="line" smooth="yes"/>
      <point x="151" y="811"/>
      <point x="169" y="777"/>
    </contour>
    <contour>
      <point x="216" y="-153" type="curve" smooth="yes"/>
      <point x="271" y="-153"/>
      <point x="281" y="-109"/>
      <point x="281" y="-67" type="curve" smooth="yes"/>
      <point x="281" y="452" type="line" smooth="yes"/>
      <point x="281" y="504"/>
      <point x="263" y="539"/>
      <point x="217" y="539" type="curve" smooth="yes"/>
      <point x="178" y="539"/>
      <point x="152" y="512"/>
      <point x="152" y="476" type="curve" smooth="yes"/>
      <point x="152" y="-67" type="line" smooth="yes"/>
      <point x="152" y="-120"/>
      <point x="169" y="-153"/>
    </contour>
  </outline>
</glyph>
<glyph name="logicalnot" format="1">
  <advance width="1345"/>
  <unicode hex="00AC"/>
  <outline>
    <contour>
      <point x="1118" y="228" type="curve" smooth="yes"/>
      <point x="1151" y="228"/>
      <point x="1185" y="249"/>
      <point x="1185" y="292" type="curve" smooth="yes"/>
      <point x="1185" y="715" type="line" smooth="yes"/>
      <point x="1185" y="749"/>
      <point x="1151" y="782"/>
      <point x="1117" y="782" type="curve" smooth="yes"/>
      <point x="220" y="782" type="line" smooth="yes"/>
      <point x="179" y="782"/>
      <point x="162" y="750"/>
      <point x="162" y="716" type="curve" smooth="yes"/>
      <point x="162" y="683"/>
      <point x="179" y="650"/>
      <point x="220" y="650" type="curve" smooth="yes"/>
      <point x="1052" y="650" type="line"/>
      <point x="1052" y="292" type="line" smooth="yes"/>
      <point x="1052" y="249"/>
      <point x="1084" y="228"/>
    </contour>
  </outline>
</glyph>
<glyph name="degree" format="1">
  <advance width="819"/>
  <unicode hex="00B0"/>
  <outline>
    <contour>
      <point x="410" y="809" type="curve" smooth="yes"/>
      <point x="577" y="809"/>
      <point x="717" y="940"/>
      <point x="717" y="1103" type="curve" smooth="yes"/>
      <point x="717" y="1265"/>
      <point x="577" y="1399"/>
      <point x="410" y="1399" type="curve" smooth="yes"/>
      <point x="239" y="1399"/>
      <point x="103" y="1265"/>
      <point x="103" y="1103" type="curve" smooth="yes"/>
      <point x="103" y="940"/>
      <point x="241" y="809"/>
    </contour>
    <contour>
      <point x="410" y="903" type="curve" smooth="yes"/>
      <point x="289" y="903"/>
      <point x="201" y="986"/>
      <point x="201" y="1103" type="curve" smooth="yes"/>
      <point x="201" y="1217"/>
      <point x="288" y="1305"/>
      <point x="408" y="1305" type="curve" smooth="yes"/>
      <point x="527" y="1305"/>
      <point x="619" y="1217"/>
      <point x="619" y="1103" type="curve" smooth="yes"/>
      <point x="619" y="986"/>
      <point x="528" y="903"/>
    </contour>
  </outline>
</glyph>
<glyph name="mu" format="1">
  <advance width="1158"/>
  <unicode hex="00B5"/>
  <outline>
    <contour>
      <point x="233" y="-253" type="curve" smooth="yes"/>
      <point x="273" y="-253"/>
      <point x="315" y="-226"/>
      <point x="315" y="-173" type="curve" smooth="yes"/>
      <point x="315" y="43" type="line"/>
      <point x="372" y="0"/>
      <point x="443" y="-17"/>
      <point x="519" y="-17" type="curve" smooth="yes"/>
      <point x="651" y="-17"/>
      <point x="787" y="48"/>
      <point x="843" y="164" type="curve"/>
      <point x="843" y="74" type="line" smooth="yes"/>
      <point x="843" y="25"/>
      <point x="882" y="0"/>
      <point x="922" y="0" type="curve" smooth="yes"/>
      <point x="962" y="0"/>
      <point x="1003" y="26"/>
      <point x="1003" y="75" type="curve" smooth="yes"/>
      <point x="1003" y="916" type="line" smooth="yes"/>
      <point x="1003" y="967"/>
      <point x="964" y="991"/>
      <point x="924" y="991" type="curve" smooth="yes"/>
      <point x="884" y="991"/>
      <point x="843" y="965"/>
      <point x="843" y="916" type="curve" smooth="yes"/>
      <point x="843" y="384" type="line"/>
      <point x="830" y="188"/>
      <point x="700" y="91"/>
      <point x="544" y="91" type="curve" smooth="yes"/>
      <point x="425" y="91"/>
      <point x="315" y="171"/>
      <point x="315" y="345" type="curve" smooth="yes"/>
      <point x="315" y="915" type="line" smooth="yes"/>
      <point x="315" y="966"/>
      <point x="275" y="990"/>
      <point x="235" y="990" type="curve" smooth="yes"/>
      <point x="195" y="990"/>
      <point x="155" y="966"/>
      <point x="155" y="915" type="curve" smooth="yes"/>
      <point x="155" y="-173" type="line" smooth="yes"/>
      <point x="155" y="-229"/>
      <point x="193" y="-253"/>
    </contour>
  </outline>
</glyph>
<glyph name="ordmasculine" format="1">
  <advance width="1118"/>
  <unicode hex="00BA"/>
  <outline>
    <contour>
      <point x="541" y="802" type="curve" smooth="yes"/>
      <point x="362" y="802"/>
      <point x="290" y="969"/>
      <point x="290" y="1108" type="curve" smooth="yes"/>
      <point x="290" y="1248"/>
      <point x="362" y="1414"/>
      <point x="541" y="1414" type="curve" smooth="yes"/>
      <point x="721" y="1414"/>
      <point x="793" y="1248"/>
      <point x="793" y="1109" type="curve" smooth="yes"/>
      <point x="793" y="969"/>
      <point x="721" y="802"/>
    </contour>
    <contour>
      <point x="541" y="707" type="curve" smooth="yes"/>
      <point x="805" y="707"/>
      <point x="926" y="905"/>
      <point x="926" y="1108" type="curve" smooth="yes"/>
      <point x="926" y="1310"/>
      <point x="805" y="1510"/>
      <point x="541" y="1510" type="curve" smooth="yes"/>
      <point x="278" y="1510"/>
      <point x="158" y="1310"/>
      <point x="158" y="1108" type="curve" smooth="yes"/>
      <point x="158" y="905"/>
      <point x="278" y="707"/>
    </contour>
  </outline>
</glyph>
<glyph name="guillemotright" format="1">
  <advance width="1151"/>
  <unicode hex="00BB"/>
  <outline>
    <contour>
      <point x="676" y="125" type="curve" smooth="yes"/>
      <point x="696" y="125"/>
      <point x="721" y="135"/>
      <point x="738" y="166" type="curve" smooth="yes"/>
      <point x="947" y="545" type="line"/>
      <point x="738" y="923" type="line" smooth="yes"/>
      <point x="721" y="953"/>
      <point x="696" y="965"/>
      <point x="676" y="965" type="curve" smooth="yes"/>
      <point x="648" y="965"/>
      <point x="624" y="944"/>
      <point x="624" y="915" type="curve" smooth="yes"/>
      <point x="624" y="909"/>
      <point x="625" y="902"/>
      <point x="629" y="896" type="curve" smooth="yes"/>
      <point x="795" y="545" type="line"/>
      <point x="629" y="194" type="line" smooth="yes"/>
      <point x="625" y="186"/>
      <point x="624" y="179"/>
      <point x="624" y="173" type="curve" smooth="yes"/>
      <point x="624" y="145"/>
      <point x="648" y="125"/>
    </contour>
    <contour>
      <point x="299" y="125" type="curve" smooth="yes"/>
      <point x="319" y="125"/>
      <point x="344" y="135"/>
      <point x="361" y="166" type="curve" smooth="yes"/>
      <point x="570" y="545" type="line"/>
      <point x="361" y="923" type="line" smooth="yes"/>
      <point x="344" y="953"/>
      <point x="319" y="965"/>
      <point x="299" y="965" type="curve" smooth="yes"/>
      <point x="271" y="965"/>
      <point x="248" y="944"/>
      <point x="248" y="915" type="curve" smooth="yes"/>
      <point x="248" y="909"/>
      <point x="249" y="902"/>
      <point x="252" y="896" type="curve" smooth="yes"/>
      <point x="418" y="545" type="line"/>
      <point x="252" y="194" type="line" smooth="yes"/>
      <point x="249" y="187"/>
      <point x="248" y="179"/>
      <point x="248" y="173" type="curve" smooth="yes"/>
      <point x="248" y="146"/>
      <point x="271" y="125"/>
    </contour>
  </outline>
</glyph>
<glyph name="threequarters" format="1">
  <advance width="1603"/>
  <unicode hex="00BE"/>
  <outline>
    <contour>
      <point x="295" y="542" type="curve" smooth="yes"/>
      <point x="439" y="542"/>
      <point x="570" y="614"/>
      <point x="570" y="771" type="curve" smooth="yes"/>
      <point x="570" y="883"/>
      <point x="497" y="963"/>
      <point x="394" y="987" type="curve"/>
      <point x="394" y="1081"/>
      <point x="555" y="1076"/>
      <point x="555" y="1179" type="curve" smooth="yes"/>
      <point x="555" y="1335"/>
      <point x="422" y="1406"/>
      <point x="284" y="1406" type="curve" smooth="yes"/>
      <point x="202" y="1406"/>
      <point x="57" y="1376"/>
      <point x="57" y="1323" type="curve" smooth="yes"/>
      <point x="57" y="1300"/>
      <point x="72" y="1280"/>
      <point x="99" y="1280" type="curve" smooth="yes"/>
      <point x="118" y="1280"/>
      <point x="207" y="1320"/>
      <point x="291" y="1320" type="curve" smooth="yes"/>
      <point x="379" y="1320"/>
      <point x="456" y="1269"/>
      <point x="456" y="1178" type="curve" smooth="yes"/>
      <point x="456" y="1073"/>
      <point x="366" y="1028"/>
      <point x="269" y="1025" type="curve" smooth="yes"/>
      <point x="233" y="1024" type="line" smooth="yes"/>
      <point x="206" y="1023"/>
      <point x="193" y="1004"/>
      <point x="193" y="983" type="curve" smooth="yes"/>
      <point x="193" y="963"/>
      <point x="206" y="943"/>
      <point x="233" y="943" type="curve" smooth="yes"/>
      <point x="278" y="943" type="line" smooth="yes"/>
      <point x="378" y="943"/>
      <point x="470" y="880"/>
      <point x="470" y="771" type="curve" smooth="yes"/>
      <point x="470" y="678"/>
      <point x="403" y="628"/>
      <point x="298" y="628" type="curve" smooth="yes"/>
      <point x="229" y="628"/>
      <point x="162" y="648"/>
      <point x="125" y="667" type="curve"/>
      <point x="89" y="679"/>
      <point x="67" y="654"/>
      <point x="67" y="629" type="curve" smooth="yes"/>
      <point x="67" y="577"/>
      <point x="217" y="542"/>
    </contour>
    <contour>
      <point x="1300" y="1" type="curve" smooth="yes"/>
      <point x="1324" y="1"/>
      <point x="1348" y="17"/>
      <point x="1348" y="49" type="curve" smooth="yes"/>
      <point x="1348" y="190" type="line"/>
      <point x="1441" y="190" type="line" smooth="yes"/>
      <point x="1468" y="190"/>
      <point x="1480" y="207"/>
      <point x="1480" y="226" type="curve" smooth="yes"/>
      <point x="1480" y="245"/>
      <point x="1466" y="262"/>
      <point x="1441" y="262" type="curve" smooth="yes"/>
      <point x="1348" y="262" type="line"/>
      <point x="1348" y="766" type="line" smooth="yes"/>
      <point x="1348" y="817"/>
      <point x="1317" y="840"/>
      <point x="1278" y="840" type="curve" smooth="yes"/>
      <point x="1246" y="840"/>
      <point x="1217" y="826"/>
      <point x="1196" y="791" type="curve"/>
      <point x="860" y="281" type="line" smooth="yes"/>
      <point x="852" y="269"/>
      <point x="848" y="257"/>
      <point x="848" y="244" type="curve" smooth="yes"/>
      <point x="848" y="215"/>
      <point x="870" y="190"/>
      <point x="905" y="190" type="curve" smooth="yes"/>
      <point x="1251" y="190" type="line"/>
      <point x="1251" y="49" type="line" smooth="yes"/>
      <point x="1251" y="17"/>
      <point x="1275" y="1"/>
    </contour>
    <contour>
      <point x="540" y="-88" type="curve" smooth="yes"/>
      <point x="563" y="-88"/>
      <point x="584" y="-75"/>
      <point x="593" y="-48" type="curve" smooth="yes"/>
      <point x="1070" y="1358" type="line" smooth="yes"/>
      <point x="1073" y="1365"/>
      <point x="1074" y="1373"/>
      <point x="1074" y="1380" type="curve" smooth="yes"/>
      <point x="1074" y="1413"/>
      <point x="1046" y="1433"/>
      <point x="1018" y="1433" type="curve" smooth="yes"/>
      <point x="994" y="1433"/>
      <point x="971" y="1420"/>
      <point x="962" y="1392" type="curve" smooth="yes"/>
      <point x="488" y="-13" type="line" smooth="yes"/>
      <point x="485" y="-20"/>
      <point x="484" y="-28"/>
      <point x="484" y="-35" type="curve" smooth="yes"/>
      <point x="484" y="-68"/>
      <point x="512" y="-88"/>
    </contour>
    <contour>
      <point x="937" y="262" type="line"/>
      <point x="1251" y="262" type="line"/>
      <point x="1251" y="745" type="line"/>
    </contour>
  </outline>
</glyph>
<glyph name="Eth" format="1">
  <advance width="1494"/>
  <unicode hex="00D0"/>
  <outline>
    <contour>
      <point x="267" y="0" type="curve" smooth="yes"/>
      <point x="611" y="0" type="line" smooth="yes"/>
      <point x="1093" y="0"/>
      <point x="1371" y="244"/>
      <point x="1371" y="710" type="curve" smooth="yes"/>
      <point x="1371" y="1178"/>
      <point x="1103" y="1426"/>
      <point x="607" y="1426" type="curve" smooth="yes"/>
      <point x="267" y="1426" type="line" smooth="yes"/>
      <point x="218" y="1426"/>
      <point x="178" y="1387"/>
      <point x="178" y="1340" type="curve" smooth="yes"/>
      <point x="178" y="775" type="line"/>
      <point x="64" y="775" type="line" smooth="yes"/>
      <point x="21" y="775"/>
      <point x="0" y="744"/>
      <point x="0" y="712" type="curve" smooth="yes"/>
      <point x="0" y="680"/>
      <point x="21" y="648"/>
      <point x="64" y="648" type="curve" smooth="yes"/>
      <point x="178" y="648" type="line"/>
      <point x="178" y="86" type="line" smooth="yes"/>
      <point x="178" y="39"/>
      <point x="218" y="0"/>
    </contour>
    <contour>
      <point x="355" y="140" type="line"/>
      <point x="355" y="648" type="line"/>
      <point x="483" y="648" type="line" smooth="yes"/>
      <point x="526" y="648"/>
      <point x="548" y="680"/>
      <point x="548" y="712" type="curve" smooth="yes"/>
      <point x="548" y="743"/>
      <point x="526" y="775"/>
      <point x="483" y="775" type="curve" smooth="yes"/>
      <point x="355" y="775" type="line"/>
      <point x="355" y="1286" type="line"/>
      <point x="582" y="1286" type="line" smooth="yes"/>
      <point x="959" y="1286"/>
      <point x="1181" y="1108"/>
      <point x="1181" y="712" type="curve" smooth="yes"/>
      <point x="1181" y="362"/>
      <point x="1022" y="140"/>
      <point x="630" y="140" type="curve" smooth="yes"/>
    </contour>
  </outline>
</glyph>
<glyph name="Oslash" format="1">
  <advance width="1596"/>
  <unicode hex="00D8"/>
  <outline>
    <component base="O"/>
    <contour>
      <point x="271" y="-112" type="curve" smooth="yes"/>
      <point x="289" y="-112"/>
      <point x="308" y="-107"/>
      <point x="327" y="-81" type="curve" smooth="yes"/>
      <point x="1386" y="1433" type="line" smooth="yes"/>
      <point x="1399" y="1453"/>
      <point x="1405" y="1471"/>
      <point x="1405" y="1486" type="curve" smooth="yes"/>
      <point x="1405" y="1518"/>
      <point x="1381" y="1539"/>
      <point x="1352" y="1539" type="curve" smooth="yes"/>
      <point x="1334" y="1539"/>
      <point x="1312" y="1533"/>
      <point x="1294" y="1506" type="curve" smooth="yes"/>
      <point x="230" y="-27" type="line" smooth="yes"/>
      <point x="222" y="-39"/>
      <point x="219" y="-50"/>
      <point x="219" y="-61" type="curve" smooth="yes"/>
      <point x="219" y="-89"/>
      <point x="243" y="-112"/>
    </contour>
  </outline>
</glyph>
<glyph name="Oslash" format="1">
  <advance width="1597"/>
  <unicode hex="00D8"/>
  <outline>
    <contour>
      <point x="334" y="-86" type="curve" smooth="yes"/>
      <point x="1388" y="1435" type="line" smooth="yes"/>
      <point x="1454" y="1531"/>
      <point x="1343" y="1588"/>
      <point x="1292" y="1513" type="curve" smooth="yes"/>
      <point x="232" y="-29" type="line" smooth="yes"/>
      <point x="185" y="-97"/>
      <point x="279" y="-165"/>
    </contour>
    <component base="O"/>
  </outline>
</glyph>
<glyph name="divide" format="1">
  <advance width="1345"/>
  <unicode hex="00F7"/>
  <outline>
    <contour>
      <point x="673" y="858" type="curve" smooth="yes"/>
      <point x="739" y="858"/>
      <point x="772" y="901"/>
      <point x="772" y="947" type="curve" smooth="yes"/>
      <point x="772" y="992"/>
      <point x="739" y="1035"/>
      <point x="673" y="1035" type="curve" smooth="yes"/>
      <point x="609" y="1035"/>
      <point x="574" y="992"/>
      <point x="574" y="947" type="curve" smooth="yes"/>
      <point x="574" y="901"/>
      <point x="608" y="858"/>
    </contour>
    <contour>
      <point x="673" y="-6" type="curve" smooth="yes"/>
      <point x="739" y="-6"/>
      <point x="772" y="38"/>
      <point x="772" y="84" type="curve" smooth="yes"/>
      <point x="772" y="126"/>
      <point x="739" y="172"/>
      <point x="673" y="172" type="curve" smooth="yes"/>
      <point x="609" y="172"/>
      <point x="574" y="126"/>
      <point x="574" y="84" type="curve" smooth="yes"/>
      <point x="574" y="38"/>
      <point x="608" y="-6"/>
    </contour>
    <contour>
      <point x="216" y="449" type="curve" smooth="yes"/>
      <point x="1135" y="449" type="line" smooth="yes"/>
      <point x="1176" y="449"/>
      <point x="1196" y="480"/>
      <point x="1196" y="514" type="curve" smooth="yes"/>
      <point x="1196" y="547"/>
      <point x="1176" y="580"/>
      <point x="1135" y="580" type="curve" smooth="yes"/>
      <point x="216" y="580" type="line" smooth="yes"/>
      <point x="175" y="580"/>
      <point x="155" y="547"/>
      <point x="155" y="514" type="curve" smooth="yes"/>
      <point x="155" y="480"/>
      <point x="175" y="449"/>
    </contour>
  </outline>
</glyph>
<glyph name="Hbar" format="1">
  <advance width="1464"/>
  <unicode hex="0126"/>
  <outline>
    <contour>
      <point x="121" y="1026" type="curve"/>
      <point x="1346" y="1026" type="line"/>
      <point x="1386" y="1026"/>
      <point x="1411" y="1045"/>
      <point x="1411" y="1076" type="curve" smooth="yes"/>
      <point x="1411" y="1107"/>
      <point x="1386" y="1127"/>
      <point x="1346" y="1127" type="curve" smooth="yes"/>
      <point x="121" y="1127" type="line" smooth="yes"/>
      <point x="82" y="1127"/>
      <point x="57" y="1107"/>
      <point x="57" y="1076" type="curve" smooth="yes"/>
      <point x="57" y="1045"/>
      <point x="82" y="1026"/>
    </contour>
    <component base="H"/>
  </outline>
</glyph>
<glyph name="kgreenlandic" format="1">
  <advance width="984"/>
  <unicode hex="0138"/>
  <outline>
    <contour>
      <point x="795" y="26" type="line" smooth="yes"/>
      <point x="864" y="-44"/>
      <point x="968" y="55"/>
      <point x="902" y="120" type="curve" smooth="yes"/>
      <point x="492" y="525" type="line"/>
      <point x="873" y="889" type="line" smooth="yes"/>
      <point x="938" y="952"/>
      <point x="842" y="1047"/>
      <point x="783" y="991" type="curve" smooth="yes"/>
      <point x="318" y="545" type="line"/>
      <point x="318" y="507" type="line"/>
    </contour>
    <contour>
      <point x="236" y="0" type="curve" smooth="yes"/>
      <point x="277" y="0"/>
      <point x="318" y="28"/>
      <point x="318" y="81" type="curve" smooth="yes"/>
      <point x="318" y="924" type="line" smooth="yes"/>
      <point x="318" y="977"/>
      <point x="278" y="1004"/>
      <point x="239" y="1004" type="curve" smooth="yes"/>
      <point x="199" y="1004"/>
      <point x="158" y="977"/>
      <point x="158" y="924" type="curve" smooth="yes"/>
      <point x="158" y="81" type="line" smooth="yes"/>
      <point x="158" y="25"/>
      <point x="197" y="0"/>
    </contour>
  </outline>
</glyph>
<glyph name="Lslash" format="1">
  <advance width="1150"/>
  <unicode hex="0141"/>
  <outline>
    <contour>
      <point x="285" y="0" type="curve" smooth="yes"/>
      <point x="1020" y="0" type="line" smooth="yes"/>
      <point x="1069" y="0"/>
      <point x="1094" y="37"/>
      <point x="1094" y="73" type="curve" smooth="yes"/>
      <point x="1094" y="110"/>
      <point x="1071" y="146"/>
      <point x="1020" y="146" type="curve" smooth="yes"/>
      <point x="373" y="146" type="line"/>
      <point x="373" y="730" type="line"/>
      <point x="677" y="830" type="line" smooth="yes"/>
      <point x="709" y="840"/>
      <point x="723" y="864"/>
      <point x="723" y="891" type="curve" smooth="yes"/>
      <point x="723" y="926"/>
      <point x="698" y="961"/>
      <point x="658" y="961" type="curve" smooth="yes"/>
      <point x="650" y="961"/>
      <point x="642" y="960"/>
      <point x="635" y="957" type="curve"/>
      <point x="373" y="872" type="line"/>
      <point x="373" y="1340" type="line" smooth="yes"/>
      <point x="373" y="1396"/>
      <point x="329" y="1424"/>
      <point x="285" y="1424" type="curve" smooth="yes"/>
      <point x="240" y="1424"/>
      <point x="195" y="1395"/>
      <point x="195" y="1340" type="curve" smooth="yes"/>
      <point x="195" y="813" type="line"/>
      <point x="40" y="763" type="line" smooth="yes"/>
      <point x="8" y="752"/>
      <point x="-6" y="728"/>
      <point x="-6" y="702" type="curve" smooth="yes"/>
      <point x="-6" y="667"/>
      <point x="19" y="631"/>
      <point x="59" y="631" type="curve" smooth="yes"/>
      <point x="67" y="631"/>
      <point x="75" y="632"/>
      <point x="82" y="635" type="curve"/>
      <point x="195" y="672" type="line"/>
      <point x="195" y="87" type="line" smooth="yes"/>
      <point x="195" y="38"/>
      <point x="237" y="0"/>
    </contour>
  </outline>
</glyph>
<glyph name="lslash" format="1">
  <advance width="474"/>
  <unicode hex="0142"/>
  <outline>
    <contour>
      <point x="235" y="0" type="curve" smooth="yes"/>
      <point x="275" y="0"/>
      <point x="317" y="28"/>
      <point x="317" y="81" type="curve" smooth="yes"/>
      <point x="317" y="740" type="line"/>
      <point x="557" y="875" type="line" smooth="yes"/>
      <point x="584" y="890"/>
      <point x="593" y="909"/>
      <point x="593" y="932" type="curve" smooth="yes"/>
      <point x="593" y="968"/>
      <point x="565" y="1003"/>
      <point x="526" y="1003" type="curve" smooth="yes"/>
      <point x="517" y="1003"/>
      <point x="507" y="1000"/>
      <point x="495" y="995" type="curve"/>
      <point x="317" y="893" type="line"/>
      <point x="317" y="1345" type="line" smooth="yes"/>
      <point x="317" y="1398"/>
      <point x="277" y="1425"/>
      <point x="238" y="1425" type="curve" smooth="yes"/>
      <point x="198" y="1425"/>
      <point x="157" y="1398"/>
      <point x="157" y="1345" type="curve" smooth="yes"/>
      <point x="157" y="812" type="line"/>
      <point x="-53" y="693" type="line" smooth="yes"/>
      <point x="-78" y="679"/>
      <point x="-89" y="658"/>
      <point x="-89" y="636" type="curve" smooth="yes"/>
      <point x="-89" y="600"/>
      <point x="-60" y="565"/>
      <point x="-22" y="565" type="curve" smooth="yes"/>
      <point x="-11" y="565"/>
      <point x="-1" y="568"/>
      <point x="9" y="573" type="curve" smooth="yes"/>
      <point x="157" y="658" type="line"/>
      <point x="157" y="81" type="line" smooth="yes"/>
      <point x="157" y="25"/>
      <point x="195" y="0"/>
    </contour>
  </outline>
</glyph>
<glyph name="eng" format="1">
  <advance width="1158"/>
  <unicode hex="014B"/>
  <outline>
    <contour>
      <point x="397" y="-276" type="curve" smooth="yes"/>
      <point x="764" y="-396"/>
      <point x="1003" y="-296"/>
      <point x="1003" y="60" type="curve"/>
      <point x="1003" y="353" type="line"/>
      <point x="843" y="353" type="line"/>
      <point x="843" y="74" type="line" smooth="yes"/>
      <point x="843" y="-211"/>
      <point x="717" y="-248"/>
      <point x="428" y="-157" type="curve" smooth="yes"/>
      <point x="348" y="-132"/>
      <point x="316" y="-249"/>
    </contour>
    <component base="n"/>
  </outline>
</glyph>
<glyph name="florin" format="1">
  <advance width="1158"/>
  <unicode hex="0192"/>
  <outline>
    <contour>
      <point x="45" y="-535" type="curve" smooth="yes"/>
      <point x="192" y="-535"/>
      <point x="357" y="-445"/>
      <point x="462" y="-20" type="curve" smooth="yes"/>
      <point x="526" y="242"/>
      <point x="584" y="548"/>
      <point x="645" y="817" type="curve"/>
      <point x="842" y="817" type="line" smooth="yes"/>
      <point x="886" y="817"/>
      <point x="908" y="850"/>
      <point x="908" y="882" type="curve" smooth="yes"/>
      <point x="908" y="915"/>
      <point x="886" y="949"/>
      <point x="842" y="949" type="curve" smooth="yes"/>
      <point x="674" y="949" type="line"/>
      <point x="753" y="1291"/>
      <point x="833" y="1428"/>
      <point x="968" y="1428" type="curve" smooth="yes"/>
      <point x="1031" y="1428"/>
      <point x="1060" y="1455"/>
      <point x="1060" y="1485" type="curve" smooth="yes"/>
      <point x="1060" y="1511"/>
      <point x="1034" y="1538"/>
      <point x="985" y="1538" type="curve" smooth="yes"/>
      <point x="791" y="1538"/>
      <point x="618" y="1376"/>
      <point x="539" y="949" type="curve"/>
      <point x="355" y="949" type="line" smooth="yes"/>
      <point x="311" y="949"/>
      <point x="288" y="917"/>
      <point x="288" y="883" type="curve" smooth="yes"/>
      <point x="288" y="849"/>
      <point x="311" y="817"/>
      <point x="355" y="817" type="curve" smooth="yes"/>
      <point x="511" y="817" type="line"/>
      <point x="451" y="548"/>
      <point x="394" y="243"/>
      <point x="330" y="-18" type="curve" smooth="yes"/>
      <point x="246" y="-359"/>
      <point x="133" y="-415"/>
      <point x="62" y="-418" type="curve" smooth="yes"/>
      <point x="0" y="-422"/>
      <point x="-30" y="-454"/>
      <point x="-30" y="-483" type="curve" smooth="yes"/>
      <point x="-30" y="-511"/>
      <point x="-7" y="-535"/>
    </contour>
  </outline>
</glyph>
<glyph name="caron" format="1">
  <advance width="569"/>
  <unicode hex="02C7"/>
  <outline>
    <contour>
      <point x="285" y="1115" type="curve" smooth="yes"/>
      <point x="314" y="1115"/>
      <point x="345" y="1130"/>
      <point x="370" y="1165" type="curve" smooth="yes"/>
      <point x="558" y="1432" type="line" smooth="yes"/>
      <point x="569" y="1447"/>
      <point x="574" y="1462"/>
      <point x="574" y="1477" type="curve" smooth="yes"/>
      <point x="574" y="1508"/>
      <point x="549" y="1532"/>
      <point x="518" y="1532" type="curve" smooth="yes"/>
      <point x="498" y="1532"/>
      <point x="477" y="1522"/>
      <point x="458" y="1497" type="curve" smooth="yes"/>
      <point x="285" y="1264" type="line"/>
      <point x="111" y="1497" type="line" smooth="yes"/>
      <point x="92" y="1522"/>
      <point x="70" y="1532"/>
      <point x="50" y="1532" type="curve" smooth="yes"/>
      <point x="19" y="1532"/>
      <point x="-6" y="1508"/>
      <point x="-6" y="1477" type="curve" smooth="yes"/>
      <point x="-6" y="1464"/>
      <point x="-2" y="1449"/>
      <point x="10" y="1432" type="curve" smooth="yes"/>
      <point x="199" y="1165" type="line" smooth="yes"/>
      <point x="222" y="1132"/>
      <point x="254" y="1115"/>
    </contour>
    <contour>
      <point x="294" y="1040" type="move" name="_top"/>
    </contour>
  </outline>
</glyph>
<glyph name="commaturnedabovecomb" format="1">
  <advance width="600"/>
  <unicode hex="0312"/>
  <outline>
    <contour>
      <point x="229" y="1210" type="curve"/>
      <point x="321" y="1210" type="line"/>
      <point x="353" y="1211"/>
      <point x="386" y="1219"/>
      <point x="394" y="1266" type="curve" smooth="yes"/>
      <point x="478" y="1736" type="line" smooth="yes"/>
      <point x="480" y="1748"/>
      <point x="482" y="1778"/>
      <point x="454" y="1779" type="curve"/>
      <point x="412" y="1779" type="line"/>
      <point x="383" y="1780"/>
      <point x="367" y="1768"/>
      <point x="356" y="1736" type="curve" smooth="yes"/>
      <point x="195" y="1266" type="line" smooth="yes"/>
      <point x="190" y="1252"/>
      <point x="187" y="1213"/>
    </contour>
    <contour>
      <point x="275" y="991" type="move" name="_top"/>
    </contour>
  </outline>
</glyph>
<glyph name="Sigma" format="1">
  <advance width="1373.880"/>
  <unicode hex="03A3"/>
  <outline>
    <contour>
      <point x="247" y="-107" type="curve" smooth="yes"/>
      <point x="1161" y="-107" type="line" smooth="yes"/>
      <point x="1248" y="-107"/>
      <point x="1247" y="56"/>
      <point x="1161" y="56" type="curve" smooth="yes"/>
      <point x="326" y="56" type="line"/>
      <point x="819" y="555" type="line" smooth="yes"/>
      <point x="900" y="637"/>
      <point x="900" y="687"/>
      <point x="819" y="769" type="curve" smooth="yes"/>
      <point x="327" y="1268" type="line"/>
      <point x="1161" y="1268" type="line" smooth="yes"/>
      <point x="1247" y="1268"/>
      <point x="1248" y="1431"/>
      <point x="1161" y="1431" type="curve" smooth="yes"/>
      <point x="264" y="1431" type="line" smooth="yes"/>
      <point x="158" y="1431"/>
      <point x="81" y="1312"/>
      <point x="199" y="1191" type="curve" smooth="yes"/>
      <point x="711" y="666" type="line"/>
      <point x="199" y="123" type="line" smooth="yes"/>
      <point x="89" y="6"/>
      <point x="151" y="-107"/>
    </contour>
    <contour>
      <point x="938" y="1438" type="move" name="top"/>
    </contour>
  </outline>
</glyph>
<glyph name="pi" format="1">
  <advance width="1198"/>
  <unicode hex="03C0"/>
  <outline>
    <contour>
      <point x="191" y="-17" type="curve" smooth="yes"/>
      <point x="226" y="-17"/>
      <point x="265" y="5"/>
      <point x="288" y="61" type="curve" smooth="yes"/>
      <point x="364" y="249"/>
      <point x="427" y="660"/>
      <point x="439" y="931" type="curve"/>
      <point x="808" y="931" type="line"/>
      <point x="808" y="357" type="line" smooth="yes"/>
      <point x="808" y="188"/>
      <point x="826" y="100"/>
      <point x="842" y="64" type="curve" smooth="yes"/>
      <point x="863" y="15"/>
      <point x="897" y="-4"/>
      <point x="933" y="-4" type="curve" smooth="yes"/>
      <point x="975" y="-4"/>
      <point x="1005" y="23"/>
      <point x="999" y="70" type="curve"/>
      <point x="984" y="130"/>
      <point x="968" y="224"/>
      <point x="968" y="384" type="curve" smooth="yes"/>
      <point x="968" y="931" type="line"/>
      <point x="1046" y="931" type="line" smooth="yes"/>
      <point x="1093" y="931"/>
      <point x="1116" y="963"/>
      <point x="1116" y="998" type="curve" smooth="yes"/>
      <point x="1116" y="1031"/>
      <point x="1093" y="1065"/>
      <point x="1046" y="1065" type="curve" smooth="yes"/>
      <point x="213" y="1065" type="line" smooth="yes"/>
      <point x="154" y="1065"/>
      <point x="126" y="1031"/>
      <point x="126" y="998" type="curve" smooth="yes"/>
      <point x="126" y="963"/>
      <point x="154" y="931"/>
      <point x="213" y="931" type="curve" smooth="yes"/>
      <point x="285" y="931" type="line"/>
      <point x="285" y="871"/>
      <point x="243" y="470"/>
      <point x="180" y="231" type="curve" smooth="yes"/>
      <point x="164" y="174"/>
      <point x="148" y="120"/>
      <point x="131" y="73" type="curve" smooth="yes"/>
      <point x="107" y="8"/>
      <point x="148" y="-17"/>
    </contour>
  </outline>
</glyph>
<glyph name="endash" format="1">
  <advance width="1024"/>
  <unicode hex="2013"/>
  <outline>
    <contour>
      <point x="71" y="457" type="curve" smooth="yes"/>
      <point x="952" y="457" type="line" smooth="yes"/>
      <point x="999" y="457"/>
      <point x="1021" y="492"/>
      <point x="1021" y="527" type="curve" smooth="yes"/>
      <point x="1021" y="562"/>
      <point x="999" y="598"/>
      <point x="952" y="598" type="curve" smooth="yes"/>
      <point x="71" y="598" type="line" smooth="yes"/>
      <point x="24" y="598"/>
      <point x="2" y="563"/>
      <point x="2" y="528" type="curve" smooth="yes"/>
      <point x="2" y="492"/>
      <point x="24" y="457"/>
    </contour>
  </outline>
</glyph>
<glyph name="emdash" format="1">
  <advance width="2048"/>
  <unicode hex="2014"/>
  <outline>
    <contour>
      <point x="68" y="460" type="curve" smooth="yes"/>
      <point x="1980" y="460" type="line" smooth="yes"/>
      <point x="2025" y="460"/>
      <point x="2046" y="493"/>
      <point x="2046" y="526" type="curve" smooth="yes"/>
      <point x="2046" y="559"/>
      <point x="2025" y="593"/>
      <point x="1980" y="593" type="curve" smooth="yes"/>
      <point x="68" y="593" type="line" smooth="yes"/>
      <point x="23" y="593"/>
      <point x="2" y="560"/>
      <point x="2" y="527" type="curve" smooth="yes"/>
      <point x="2" y="493"/>
      <point x="23" y="460"/>
    </contour>
  </outline>
</glyph>
<glyph name="quoteleft" format="1">
  <advance width="584"/>
  <unicode hex="2018"/>
  <outline>
    <contour>
      <point x="140" y="1001" type="line"/>
      <point x="336" y="1001" type="line"/>
      <point x="430" y="1426" type="line"/>
      <point x="292" y="1426" type="line"/>
    </contour>
  </outline>
</glyph>
<glyph name="quoteright" format="1">
  <advance width="578"/>
  <unicode hex="2019"/>
  <outline>
    <contour>
      <point x="204" y="1025" type="curve" smooth="yes"/>
      <point x="238" y="1025" type="line" smooth="yes"/>
      <point x="267" y="1025"/>
      <point x="281" y="1036"/>
      <point x="294" y="1068" type="curve" smooth="yes"/>
      <point x="421" y="1368" type="line" smooth="yes"/>
      <point x="427" y="1382"/>
      <point x="429" y="1424"/>
      <point x="387" y="1424" type="curve" smooth="yes"/>
      <point x="306" y="1424" type="line" smooth="yes"/>
      <point x="274" y="1423"/>
      <point x="241" y="1415"/>
      <point x="233" y="1368" type="curve" smooth="yes"/>
      <point x="180" y="1068" type="line" smooth="yes"/>
      <point x="178" y="1056"/>
      <point x="176" y="1025"/>
    </contour>
  </outline>
</glyph>
<glyph name="quotesinglbase" format="1">
  <advance width="584"/>
  <unicode hex="201A"/>
  <outline>
    <contour>
      <point x="197" y="-234" type="curve" smooth="yes"/>
      <point x="239" y="-234" type="line" smooth="yes"/>
      <point x="269" y="-234"/>
      <point x="282" y="-223"/>
      <point x="295" y="-191" type="curve" smooth="yes"/>
      <point x="430" y="136" type="line" smooth="yes"/>
      <point x="436" y="150"/>
      <point x="438" y="192"/>
      <point x="396" y="192" type="curve" smooth="yes"/>
      <point x="304" y="192" type="line" smooth="yes"/>
      <point x="272" y="191"/>
      <point x="239" y="183"/>
      <point x="231" y="136" type="curve" smooth="yes"/>
      <point x="173" y="-191" type="line" smooth="yes"/>
      <point x="171" y="-203"/>
      <point x="169" y="-233"/>
    </contour>
  </outline>
</glyph>
<glyph name="quotedblleft" format="1">
  <advance width="1146"/>
  <unicode hex="201C"/>
  <outline>
    <contour>
      <point x="221" y="1001" type="line"/>
      <point x="417" y="1001" type="line"/>
      <point x="511" y="1426" type="line"/>
      <point x="372" y="1426" type="line"/>
    </contour>
    <contour>
      <point x="617" y="1001" type="line"/>
      <point x="813" y="1001" type="line"/>
      <point x="906" y="1426" type="line"/>
      <point x="769" y="1426" type="line"/>
    </contour>
  </outline>
</glyph>
<glyph name="quotedblright" format="1">
  <advance width="1146"/>
  <unicode hex="201D"/>
  <outline>
    <contour>
      <point x="279" y="1000" type="curve" smooth="yes"/>
      <point x="321" y="1000" type="line" smooth="yes"/>
      <point x="350" y="1000"/>
      <point x="364" y="1011"/>
      <point x="377" y="1043" type="curve" smooth="yes"/>
      <point x="512" y="1370" type="line" smooth="yes"/>
      <point x="518" y="1384"/>
      <point x="520" y="1426"/>
      <point x="478" y="1426" type="curve" smooth="yes"/>
      <point x="386" y="1426" type="line" smooth="yes"/>
      <point x="354" y="1425"/>
      <point x="321" y="1417"/>
      <point x="313" y="1370" type="curve" smooth="yes"/>
      <point x="255" y="1043" type="line" smooth="yes"/>
      <point x="253" y="1031"/>
      <point x="251" y="1000"/>
    </contour>
    <contour>
      <point x="648" y="1000" type="curve" smooth="yes"/>
      <point x="690" y="1000" type="line" smooth="yes"/>
      <point x="719" y="1000"/>
      <point x="733" y="1011"/>
      <point x="746" y="1043" type="curve" smooth="yes"/>
      <point x="881" y="1370" type="line" smooth="yes"/>
      <point x="887" y="1384"/>
      <point x="889" y="1426"/>
      <point x="847" y="1426" type="curve" smooth="yes"/>
      <point x="755" y="1426" type="line" smooth="yes"/>
      <point x="723" y="1425"/>
      <point x="690" y="1417"/>
      <point x="682" y="1370" type="curve" smooth="yes"/>
      <point x="624" y="1043" type="line" smooth="yes"/>
      <point x="622" y="1031"/>
      <point x="620" y="1000"/>
    </contour>
  </outline>
</glyph>
<glyph name="quotedblbase" format="1">
  <advance width="1146"/>
  <unicode hex="201E"/>
  <outline>
    <contour>
      <point x="240" y="-234" type="line"/>
      <point x="378" y="-234" type="line"/>
      <point x="530" y="192" type="line"/>
      <point x="333" y="192" type="line"/>
    </contour>
    <contour>
      <point x="635" y="-234" type="line"/>
      <point x="774" y="-234" type="line"/>
      <point x="925" y="192" type="line"/>
      <point x="728" y="192" type="line"/>
    </contour>
  </outline>
</glyph>
<glyph name="Euro" format="1">
  <advance width="1385"/>
  <unicode hex="20AC"/>
  <outline>
    <contour>
      <point x="56" y="504" type="curve" smooth="yes"/>
      <point x="955" y="504" type="line" smooth="yes"/>
      <point x="1024" y="504"/>
      <point x="1019" y="619"/>
      <point x="955" y="619" type="curve" smooth="yes"/>
      <point x="56" y="619" type="line" smooth="yes"/>
      <point x="-1" y="619"/>
      <point x="-6" y="504"/>
    </contour>
    <contour>
      <point x="56" y="746" type="curve" smooth="yes"/>
      <point x="955" y="746" type="line" smooth="yes"/>
      <point x="1024" y="746"/>
      <point x="1019" y="861"/>
      <point x="955" y="861" type="curve" smooth="yes"/>
      <point x="56" y="861" type="line" smooth="yes"/>
      <point x="-1" y="861"/>
      <point x="-6" y="746"/>
    </contour>
    <component base="C" xOffset="50"/>
  </outline>
</glyph>
<glyph name="uni2113" format="1">
  <advance width="727"/>
  <unicode hex="2113"/>
  <outline>
    <contour>
      <point x="629" y="1494"/>
      <point x="473" y="1494" type="curve" smooth="yes"/>
      <point x="354" y="1494"/>
      <point x="230" y="1413"/>
      <point x="229" y="1194" type="curve" smooth="yes"/>
      <point x="228" y="871" type="line"/>
      <point x="51" y="732" type="line" smooth="yes"/>
      <point x="36" y="720"/>
      <point x="29" y="706"/>
      <point x="29" y="693" type="curve" smooth="yes"/>
      <point x="29" y="672"/>
      <point x="46" y="654"/>
      <point x="68" y="654" type="curve" smooth="yes"/>
      <point x="78" y="654"/>
      <point x="87" y="656"/>
      <point x="100" y="666" type="curve" smooth="yes"/>
      <point x="228" y="766" type="line"/>
      <point x="228" y="289" type="line" smooth="yes"/>
      <point x="228" y="60"/>
      <point x="334" y="-17"/>
      <point x="467" y="-17" type="curve" smooth="yes"/>
      <point x="528" y="-17"/>
      <point x="584" y="-15"/>
      <point x="612" y="-10" type="curve" smooth="yes"/>
      <point x="646" y="-4"/>
      <point x="662" y="22"/>
      <point x="662" y="49" type="curve" smooth="yes"/>
      <point x="662" y="82"/>
      <point x="638" y="114"/>
      <point x="592" y="112" type="curve" smooth="yes"/>
      <point x="527" y="109" type="line" smooth="yes"/>
      <point x="435" y="105"/>
      <point x="388" y="151"/>
      <point x="388" y="308" type="curve" smooth="yes"/>
      <point x="388" y="876" type="line"/>
      <point x="613" y="1042"/>
      <point x="687" y="1125"/>
      <point x="687" y="1259" type="curve" smooth="yes"/>
      <point x="687" y="1372"/>
    </contour>
    <contour>
      <point x="388" y="1315"/>
      <point x="431" y="1348"/>
      <point x="473" y="1348" type="curve" smooth="yes"/>
      <point x="514" y="1348"/>
      <point x="555" y="1316"/>
      <point x="555" y="1249" type="curve" smooth="yes"/>
      <point x="555" y="1149"/>
      <point x="498" y="1067"/>
      <point x="388" y="981" type="curve"/>
      <point x="388" y="1207" type="line" smooth="yes"/>
    </contour>
  </outline>
</glyph>
<glyph name="trademark" format="1">
  <advance width="1937"/>
  <unicode hex="2122"/>
  <outline>
    <contour>
      <point x="877" y="653" type="curve" smooth="yes"/>
      <point x="909" y="653"/>
      <point x="941" y="674"/>
      <point x="941" y="714" type="curve" smooth="yes"/>
      <point x="941" y="1190" type="line"/>
      <point x="1184" y="696" type="line"/>
      <point x="1195" y="669"/>
      <point x="1217" y="658"/>
      <point x="1240" y="658" type="curve" smooth="yes"/>
      <point x="1264" y="658"/>
      <point x="1286" y="672"/>
      <point x="1298" y="696" type="curve" smooth="yes"/>
      <point x="1540" y="1190" type="line"/>
      <point x="1540" y="714" type="line" smooth="yes"/>
      <point x="1540" y="673"/>
      <point x="1571" y="653"/>
      <point x="1603" y="653" type="curve" smooth="yes"/>
      <point x="1635" y="653"/>
      <point x="1667" y="674"/>
      <point x="1667" y="714" type="curve" smooth="yes"/>
      <point x="1667" y="1262" type="line" smooth="yes"/>
      <point x="1667" y="1339"/>
      <point x="1623" y="1372"/>
      <point x="1571" y="1372" type="curve" smooth="yes"/>
      <point x="1533" y="1372"/>
      <point x="1495" y="1351"/>
      <point x="1468" y="1295" type="curve" smooth="yes"/>
      <point x="1242" y="839" type="line"/>
      <point x="1015" y="1295" type="line" smooth="yes"/>
      <point x="987" y="1351"/>
      <point x="947" y="1373"/>
      <point x="911" y="1373" type="curve" smooth="yes"/>
      <point x="859" y="1373"/>
      <point x="814" y="1339"/>
      <point x="814" y="1262" type="curve" smooth="yes"/>
      <point x="814" y="714" type="line" smooth="yes"/>
      <point x="814" y="674"/>
      <point x="845" y="653"/>
    </contour>
    <contour>
      <point x="362" y="654" type="curve" smooth="yes"/>
      <point x="394" y="654"/>
      <point x="427" y="674"/>
      <point x="427" y="715" type="curve" smooth="yes"/>
      <point x="427" y="1277" type="line"/>
      <point x="615" y="1277" type="line" smooth="yes"/>
      <point x="646" y="1277"/>
      <point x="661" y="1301"/>
      <point x="661" y="1324" type="curve" smooth="yes"/>
      <point x="661" y="1349"/>
      <point x="646" y="1373"/>
      <point x="615" y="1373" type="curve" smooth="yes"/>
      <point x="109" y="1373" type="line" smooth="yes"/>
      <point x="77" y="1373"/>
      <point x="62" y="1349"/>
      <point x="62" y="1325" type="curve" smooth="yes"/>
      <point x="62" y="1301"/>
      <point x="78" y="1277"/>
      <point x="109" y="1277" type="curve" smooth="yes"/>
      <point x="298" y="1277" type="line"/>
      <point x="298" y="715" type="line" smooth="yes"/>
      <point x="298" y="674"/>
      <point x="330" y="654"/>
    </contour>
  </outline>
</glyph>
<glyph name="partialdiff" format="1">
  <advance width="1145"/>
  <unicode hex="2202"/>
  <outline>
    <contour>
      <point x="511" y="-24" type="curve" smooth="yes"/>
      <point x="856" y="-24"/>
      <point x="1040" y="345"/>
      <point x="1040" y="822" type="curve" smooth="yes"/>
      <point x="1040" y="1361"/>
      <point x="811" y="1604"/>
      <point x="502" y="1604" type="curve" smooth="yes"/>
      <point x="385" y="1604"/>
      <point x="271" y="1572"/>
      <point x="165" y="1524" type="curve" smooth="yes"/>
      <point x="137" y="1511"/>
      <point x="126" y="1491"/>
      <point x="126" y="1468" type="curve" smooth="yes"/>
      <point x="126" y="1433"/>
      <point x="154" y="1398"/>
      <point x="190" y="1398" type="curve" smooth="yes"/>
      <point x="199" y="1398"/>
      <point x="207" y="1400"/>
      <point x="214" y="1403" type="curve" smooth="yes"/>
      <point x="306" y="1439"/>
      <point x="400" y="1468"/>
      <point x="492" y="1468" type="curve" smooth="yes"/>
      <point x="718" y="1468"/>
      <point x="883" y="1294"/>
      <point x="883" y="862" type="curve" smooth="yes"/>
      <point x="883" y="800"/>
      <point x="882" y="786"/>
      <point x="881" y="775" type="curve"/>
      <point x="876" y="780"/>
      <point x="727" y="976"/>
      <point x="531" y="976" type="curve" smooth="yes"/>
      <point x="294" y="976"/>
      <point x="87" y="772"/>
      <point x="87" y="451" type="curve" smooth="yes"/>
      <point x="87" y="219"/>
      <point x="222" y="-24"/>
    </contour>
    <contour>
      <point x="524" y="108" type="line" smooth="yes"/>
      <point x="358" y="108"/>
      <point x="246" y="253"/>
      <point x="246" y="453" type="curve" smooth="yes"/>
      <point x="246" y="671"/>
      <point x="388" y="847"/>
      <point x="559" y="847" type="curve" smooth="yes"/>
      <point x="722" y="847"/>
      <point x="831" y="712"/>
      <point x="861" y="620" type="curve"/>
      <point x="834" y="352"/>
      <point x="713" y="108"/>
      <point x="526" y="108" type="curve" smooth="yes"/>
    </contour>
  </outline>
</glyph>
<glyph name="emptyset" format="1">
  <advance width="1745"/>
  <unicode hex="2205"/>
  <outline>
    <contour>
      <point x="874" y="92" type="curve" smooth="yes"/>
      <point x="1206" y="92"/>
      <point x="1478" y="352"/>
      <point x="1478" y="669" type="curve" smooth="yes"/>
      <point x="1478" y="839.393"/>
      <point x="1403.57" y="987.403"/>
      <point x="1288.42" y="1091.52" type="curve"/>
      <point x="1381" y="1212" type="line" smooth="yes"/>
      <point x="1396" y="1234"/>
      <point x="1417" y="1259"/>
      <point x="1420" y="1280" type="curve" smooth="yes"/>
      <point x="1423" y="1311"/>
      <point x="1401" y="1341"/>
      <point x="1371" y="1345" type="curve" smooth="yes"/>
      <point x="1352" y="1346"/>
      <point x="1332" y="1340"/>
      <point x="1314" y="1316" type="curve" smooth="yes"/>
      <point x="1195.08" y="1160.97" type="line"/>
      <point x="1100.32" y="1218.42"/>
      <point x="989.264" y="1251"/>
      <point x="874" y="1251" type="curve" smooth="yes"/>
      <point x="526" y="1251"/>
      <point x="267" y="977"/>
      <point x="267" y="669" type="curve" smooth="yes"/>
      <point x="267" y="488.871"/>
      <point x="351.319" y="333.471"/>
      <point x="480.6" y="229.473" type="curve"/>
      <point x="402" y="127" type="line" smooth="yes"/>
      <point x="386" y="108"/>
      <point x="367" y="79"/>
      <point x="364" y="64" type="curve" smooth="yes"/>
      <point x="361" y="33"/>
      <point x="383" y="2"/>
      <point x="416" y="-3" type="curve" smooth="yes"/>
      <point x="447" y="-5"/>
      <point x="472" y="29"/>
      <point x="495" y="59" type="curve" smooth="yes"/>
      <point x="577.108" y="165.852" type="line"/>
      <point x="665.983" y="118.543"/>
      <point x="767.788" y="92"/>
    </contour>
    <contour>
      <point x="543.559" y="311.555" type="line"/>
      <point x="445.067" y="399.202"/>
      <point x="386" y="526.753"/>
      <point x="386" y="669" type="curve" smooth="yes"/>
      <point x="386" y="941"/>
      <point x="599" y="1148"/>
      <point x="874" y="1148" type="curve" smooth="yes"/>
      <point x="970.669" y="1148"/>
      <point x="1058.34" y="1122.56"/>
      <point x="1131.77" y="1078.42" type="curve"/>
    </contour>
    <contour>
      <point x="638.693" y="245.996" type="curve"/>
      <point x="1223.21" y="1006.66" type="line"/>
      <point x="1309.08" y="919.977"/>
      <point x="1360" y="800.574"/>
      <point x="1360" y="669" type="curve" smooth="yes"/>
      <point x="1360" y="389"/>
      <point x="1137" y="190"/>
      <point x="874" y="190" type="curve" smooth="yes"/>
      <point x="786.953" y="190"/>
      <point x="707.285" y="210.246"/>
    </contour>
  </outline>
</glyph>
<glyph name="minus" format="1">
  <advance width="684"/>
  <unicode hex="2212"/>
  <outline>
    <contour>
      <point x="99" y="460" type="curve" smooth="yes"/>
      <point x="581" y="460" type="line" smooth="yes"/>
      <point x="626" y="460"/>
      <point x="647" y="493"/>
      <point x="647" y="526" type="curve" smooth="yes"/>
      <point x="647" y="559"/>
      <point x="626" y="593"/>
      <point x="581" y="593" type="curve" smooth="yes"/>
      <point x="99" y="593" type="line" smooth="yes"/>
      <point x="53" y="593"/>
      <point x="32" y="560"/>
      <point x="32" y="527" type="curve" smooth="yes"/>
      <point x="32" y="494"/>
      <point x="54" y="460"/>
    </contour>
  </outline>
</glyph>
<glyph name="approxequal" format="1">
  <advance width="1174"/>
  <unicode hex="2248"/>
  <outline>
    <contour>
      <point x="816" y="312" type="curve" smooth="yes"/>
      <point x="898" y="312"/>
      <point x="967" y="368"/>
      <point x="967" y="476" type="curve" smooth="yes"/>
      <point x="967" y="508"/>
      <point x="936" y="531"/>
      <point x="908" y="531" type="curve" smooth="yes"/>
      <point x="832" y="531"/>
      <point x="854" y="450"/>
      <point x="809" y="450" type="curve" smooth="yes"/>
      <point x="757" y="450"/>
      <point x="426" y="531"/>
      <point x="328" y="531" type="curve" smooth="yes"/>
      <point x="267" y="531"/>
      <point x="173" y="487"/>
      <point x="173" y="368" type="curve" smooth="yes"/>
      <point x="173" y="338"/>
      <point x="198" y="315"/>
      <point x="229" y="315" type="curve" smooth="yes"/>
      <point x="242" y="315"/>
      <point x="255" y="315"/>
      <point x="266" y="324" type="curve" smooth="yes"/>
      <point x="312" y="358"/>
      <point x="303" y="394"/>
      <point x="345" y="394" type="curve"/>
      <point x="403" y="390"/>
      <point x="726" y="312"/>
    </contour>
    <contour>
      <point x="816" y="661" type="curve" smooth="yes"/>
      <point x="898" y="661"/>
      <point x="967" y="716"/>
      <point x="967" y="824" type="curve" smooth="yes"/>
      <point x="967" y="857"/>
      <point x="936" y="880"/>
      <point x="908" y="880" type="curve" smooth="yes"/>
      <point x="832" y="880"/>
      <point x="854" y="798"/>
      <point x="809" y="798" type="curve" smooth="yes"/>
      <point x="757" y="798"/>
      <point x="426" y="880"/>
      <point x="328" y="880" type="curve" smooth="yes"/>
      <point x="267" y="880"/>
      <point x="173" y="835"/>
      <point x="173" y="716" type="curve" smooth="yes"/>
      <point x="173" y="686"/>
      <point x="198" y="663"/>
      <point x="229" y="663" type="curve" smooth="yes"/>
      <point x="242" y="663"/>
      <point x="255" y="664"/>
      <point x="266" y="672" type="curve" smooth="yes"/>
      <point x="312" y="707"/>
      <point x="303" y="743"/>
      <point x="345" y="743" type="curve"/>
      <point x="403" y="739"/>
      <point x="726" y="661"/>
    </contour>
  </outline>
</glyph>
<glyph name="caron.alt" format="1">
  <advance width="595"/>
  <outline>
    <contour>
      <point x="11" y="310" type="move" name="_caron.alt"/>
    </contour>
    <contour>
      <point x="294" y="305" type="curve" smooth="yes"/>
      <point x="310" y="305" type="line" smooth="yes"/>
      <point x="339" y="304"/>
      <point x="355" y="316"/>
      <point x="366" y="348" type="curve" smooth="yes"/>
      <point x="492" y="733" type="line" smooth="yes"/>
      <point x="497" y="747"/>
      <point x="500" y="786"/>
      <point x="458" y="789" type="curve" smooth="yes"/>
      <point x="406" y="789" type="line" smooth="yes"/>
      <point x="374" y="788"/>
      <point x="341" y="780"/>
      <point x="333" y="733" type="curve" smooth="yes"/>
      <point x="270" y="348" type="line" smooth="yes"/>
      <point x="268" y="336"/>
      <point x="266" y="306"/>
    </contour>
  </outline>
</glyph>
<glyph name="dotaccentcmb" format="1">
  <advance width="600"/>
  <outline>
    <contour>
      <point x="277" y="1203" type="curve" smooth="yes"/>
      <point x="344" y="1203"/>
      <point x="379" y="1247"/>
      <point x="379" y="1295" type="curve" smooth="yes"/>
      <point x="379" y="1339"/>
      <point x="345" y="1386"/>
      <point x="277" y="1386" type="curve" smooth="yes"/>
      <point x="211" y="1386"/>
      <point x="176" y="1340"/>
      <point x="176" y="1295" type="curve" smooth="yes"/>
      <point x="176" y="1247"/>
      <point x="210" y="1203"/>
    </contour>
  </outline>
</glyph>
<glyph name="slashbar" format="1">
  <advance width="600"/>
  <outline>
    <contour>
      <point x="83" y="641" type="curve" smooth="yes"/>
      <point x="668" y="833" type="line" smooth="yes"/>
      <point x="747" y="858"/>
      <point x="713" y="982"/>
      <point x="628" y="954" type="curve" smooth="yes"/>
      <point x="43" y="763" type="line" smooth="yes"/>
      <point x="-41" y="736"/>
      <point x="-9" y="611"/>
    </contour>
  </outline>
</glyph>
